<?xml version="1.0" encoding="UTF-8"?>
<svg version="1.1" xmlns="http://www.w3.org/2000/svg" width="1536" height="1024">
<path d="M0 0 C506.88 0 1013.76 0 1536 0 C1536 337.92 1536 675.84 1536 1024 C1029.12 1024 522.24 1024 0 1024 C0 686.08 0 348.16 0 0 Z " fill="#0C1720" transform="translate(0,0)"/>
<path d="M0 0 C1.12373248 -0.00445784 2.24746497 -0.00891569 3.40524995 -0.01350862 C4.62974434 -0.01332426 5.85423873 -0.01313989 7.115839 -0.01294994 C8.42458036 -0.01662663 9.73332172 -0.02030332 11.0817219 -0.02409142 C14.7085843 -0.03407945 18.33543016 -0.03782306 21.96230435 -0.04048073 C25.87665902 -0.04439338 29.79100071 -0.05397112 33.70534706 -0.0626936 C43.15647035 -0.08243229 52.60759466 -0.09252152 62.0587334 -0.10142139 C66.51464497 -0.10580907 70.97055535 -0.11117469 75.42646599 -0.11641026 C90.24836353 -0.13342094 105.07026034 -0.14791327 119.89216614 -0.155159 C123.73630588 -0.15706875 127.58044562 -0.1589891 131.42458534 -0.16094494 C132.37997332 -0.16142868 133.3353613 -0.16191242 134.31970043 -0.16241082 C149.78294487 -0.17070425 165.24611177 -0.19603027 180.70932238 -0.22852562 C196.60208554 -0.26165002 212.49480937 -0.27961267 228.38760722 -0.28280324 C237.3038658 -0.2849635 246.22001136 -0.2936409 255.13623619 -0.31926441 C262.73264259 -0.34104516 270.32890852 -0.34898581 277.9253426 -0.33929763 C281.79573561 -0.33477399 285.66583923 -0.33652496 289.53619194 -0.35605907 C324.98244145 -0.52512071 324.98244145 -0.52512071 340.59011269 7.82172108 C341.24689003 8.16275867 341.90366737 8.50379627 342.58034706 8.85516834 C360.06222205 18.26897859 372.00601619 33.77212458 378.48855019 52.34125233 C378.87913612 53.72377186 378.87913612 53.72377186 379.27761269 55.13422108 C379.61822227 56.33501301 379.95883186 57.53580494 380.30976295 58.7729845 C381.88344004 65.98453692 381.56493361 73.36488182 381.55227089 80.70697498 C381.556624 82.37852677 381.56180913 84.05007656 381.56775856 85.72162342 C381.58109963 90.24263726 381.58173239 94.76356724 381.57919526 99.28459692 C381.5781216 103.07128164 381.58301931 106.85794967 381.58780068 110.64463079 C381.59888031 119.58827657 381.59934285 128.53188035 381.59328651 137.47552967 C381.58725601 146.66916145 381.59953781 155.86263983 381.62085658 165.05624545 C381.63853883 172.97592627 381.6444633 180.89555857 381.64121884 188.81525838 C381.63941538 193.53343432 381.64194715 198.25150098 381.65593338 202.96965885 C381.66861433 207.41358518 381.6664718 211.85727483 381.65352249 216.30119801 C381.65117881 217.92036365 381.65381078 219.53954648 381.66214561 221.15869236 C381.726102 234.5634734 380.73426621 247.75876398 374.59011269 259.94672108 C374.24198524 260.65828358 373.8938578 261.36984608 373.53518105 262.10297108 C370.50040565 268.09745434 366.87061959 273.21813194 362.27761269 278.13422108 C361.57894081 278.91152576 360.88026894 279.68883045 360.16042519 280.48968983 C346.89823538 294.57781672 327.54270627 303.00862927 308.2305851 303.74387074 C305.36651239 303.82452063 302.50346562 303.85806368 299.63845253 303.88470936 C298.06407658 303.91265849 296.48972207 303.94183851 294.91539001 303.97215939 C290.03626812 304.05775119 285.15734866 304.10206517 280.27761269 304.13422108 C279.5146013 304.13955955 278.75158991 304.14489801 277.96545696 304.15039825 C268.08326691 304.21464095 258.2019579 304.1958108 248.31974602 304.14825535 C243.35009748 304.12447668 238.38045177 304.11169286 233.41076088 304.10056019 C219.31424017 304.06767116 205.21778667 304.0248969 191.12136269 303.96283436 C183.26093461 303.92831852 175.40054944 303.90451941 167.54005373 303.89262593 C162.60412287 303.88457066 157.66848241 303.8634495 152.73264527 303.83242106 C149.68078787 303.81641204 146.62901329 303.81300132 143.57711792 303.81319141 C142.16698844 303.81077359 140.75685672 303.80321371 139.3467865 303.7900629 C137.41971949 303.77283691 135.49250246 303.77603537 133.56536293 303.78018665 C131.95138335 303.77409036 131.95138335 303.77409036 130.30479813 303.7678709 C123.83813706 304.55046664 119.75164702 308.22708413 115.3515873 312.7196703 C114.51375961 313.55684086 114.51375961 313.55684086 113.65900612 314.41092396 C111.82544929 316.24656029 110.00273779 318.09257709 108.17995644 319.93890858 C106.90079439 321.22367323 105.6209629 322.50777168 104.34049416 323.79123402 C100.97713603 327.16601912 97.62287695 330.54970775 94.27047157 333.93536854 C90.86615329 337.3703181 87.45339291 340.7968565 84.04128456 344.22406483 C78.52640235 349.76527092 73.0166386 355.31150386 67.51381874 360.86468983 C66.10249109 362.28860178 64.69007673 363.71143637 63.27761269 365.13422108 C62.40266655 366.04882099 61.52772041 366.96342091 60.62626076 367.90573597 C57.5803409 370.79581862 55.42785189 371.56177429 51.27761269 372.13422108 C47.35952201 371.02409538 45.0576676 370.17630303 42.59478188 366.88611317 C41.0786686 363.71857768 40.92016285 361.66471476 40.95290565 358.16644764 C40.95635994 356.98882862 40.95981422 355.8112096 40.96337318 354.59790516 C40.98199409 353.33629566 41.00061501 352.07468616 41.01980019 350.77484608 C41.02990667 348.78895965 41.04000883 346.80307318 41.04984665 344.8171854 C41.06735743 342.0443514 41.09872016 339.27173689 41.12990761 336.49902821 C41.18218657 331.62963648 41.21454598 326.76008401 41.2439518 321.8905077 C41.26100766 319.29853982 41.28421236 316.70660416 41.31395912 314.11475086 C41.32371773 312.94974049 41.33347633 311.78473011 41.34353065 310.58441639 C41.35479988 309.55358936 41.36606911 308.52276234 41.37767982 307.46069813 C41.54191541 305.173168 41.54191541 305.173168 40.27761269 304.13422108 C38.41575798 304.05840494 36.55105362 304.05119687 34.68776894 304.07172108 C33.51947548 304.08042225 32.35118202 304.08912342 31.14748573 304.09808826 C29.89105263 304.11001209 28.63461952 304.12193592 27.34011269 304.13422108 C-1.09789461 304.22765485 -26.86246343 302.198633 -48.31320763 281.53558826 C-64.55518841 265.38365312 -71.19514786 244.92625377 -71.26450157 222.35854053 C-71.25673052 220.85464738 -71.24853825 219.35075636 -71.23996544 217.84686756 C-71.24540616 216.20678562 -71.25253958 214.56670858 -71.26120567 212.92664051 C-71.27920932 208.53195159 -71.27246855 204.13764452 -71.25968933 199.7429502 C-71.24944259 195.10782611 -71.2589868 190.47273108 -71.26523399 185.83760548 C-71.27247613 178.06019795 -71.26301281 170.28294321 -71.24387169 162.50555897 C-71.22210193 153.55767467 -71.229169 144.61015506 -71.25117731 135.66227955 C-71.26942071 127.93089793 -71.27184648 120.19962509 -71.26142263 112.46822888 C-71.2552375 107.87194802 -71.25421293 103.27583769 -71.26756859 98.67956829 C-71.27925812 94.35607966 -71.27086676 90.03305417 -71.24799156 85.70961475 C-71.24277383 84.13805434 -71.2440965 82.56645385 -71.25304222 80.99491024 C-71.37003132 58.32533263 -65.0089091 38.50624301 -49.33176231 21.54828358 C-36.26215357 8.83084992 -18.45318276 0.0341238 0 0 Z " fill="#5795B6" transform="translate(241.72238731384277,144.86577892303467)"/>
<path d="M0 0 C1.17780029 0.00273422 1.17780029 0.00273422 2.37939453 0.00552368 C14.8961308 0.05426833 27.03629707 0.692111 39.3125 3.3125 C40.13524414 3.48410645 40.95798828 3.65571289 41.80566406 3.83251953 C66.18640173 9.06497934 89.11009234 18.55237359 109.3125 33.3125 C109.84085449 33.69422363 110.36920898 34.07594727 110.91357422 34.46923828 C118.56393872 40.04711837 125.47379639 46.20013846 132.1875 52.875 C132.89616211 53.57818359 133.60482422 54.28136719 134.33496094 55.00585938 C139.3125 60.05496444 139.3125 60.05496444 139.3125 62.3125 C139.9725 62.3125 140.6325 62.3125 141.3125 62.3125 C142.60595703 63.66674805 142.60595703 63.66674805 144.0703125 65.57421875 C144.87915894 66.62428101 144.87915894 66.62428101 145.7043457 67.69555664 C146.27628662 68.45602295 146.84822754 69.21648926 147.4375 70 C148.02426514 70.77657959 148.61103027 71.55315918 149.21557617 72.35327148 C160.2223945 87.08915924 168.63460334 103.19586957 175.3125 120.3125 C175.65925781 121.16585937 176.00601562 122.01921875 176.36328125 122.8984375 C181.23272485 135.41986389 183.48823612 148.27578889 185.0625 161.5625 C185.19019775 162.62670166 185.31789551 163.69090332 185.44946289 164.78735352 C190.53524446 211.13122533 176.19594931 259.45485671 147.9921875 296.34765625 C125.58712723 324.10026574 97.44840099 346.75199007 63.3125 358.3125 C62.59513672 358.56193359 61.87777344 358.81136719 61.13867188 359.06835938 C17.66358366 373.95205399 -32.16974431 372.42150573 -73.78076172 352.30029297 C-83.19666181 347.62076113 -92.10615781 342.40561709 -100.6875 336.3125 C-102.07001953 335.34183594 -102.07001953 335.34183594 -103.48046875 334.3515625 C-135.4230137 311.55476737 -160.96915903 280.20012603 -172.6875 242.3125 C-172.94370117 241.48621094 -173.19990234 240.65992188 -173.46386719 239.80859375 C-181.92226453 211.77038398 -184.1439125 182.26975302 -179.6875 153.3125 C-179.5745459 152.54824707 -179.4615918 151.78399414 -179.34521484 150.99658203 C-172.14357634 104.24859665 -144.36666277 62.06390935 -106.66796875 34.0703125 C-74.83401785 11.38224392 -39.08490208 -0.1897073 0 0 Z " fill="#193F55" transform="translate(786.6875,325.6875)"/>
<path d="M0 0 C0.83063965 0.19867676 1.6612793 0.39735352 2.51708984 0.60205078 C15.3046504 3.74653289 27.19856293 8.18528159 39 14 C39.99338379 14.48339844 39.99338379 14.48339844 41.00683594 14.9765625 C79.91215252 34.10841234 109.8672744 68.77201671 124.18457031 109.57226562 C138.86492054 153.2792724 135.48730632 201.02343421 115.0625 242.3125 C106.71925202 258.70376426 95.66884882 272.76679386 83 286 C82.10925781 286.9384375 81.21851563 287.876875 80.30078125 288.84375 C78 291 78 291 76 291 C76 291.66 76 292.32 76 293 C74.20416605 294.59903023 72.41522733 296.0548061 70.5 297.5 C69.91903564 297.94069824 69.33807129 298.38139648 68.73950195 298.83544922 C31.2097001 326.81519034 -13.75257049 338.95965777 -60.375 332.875 C-94.14145708 327.90024482 -126.00109703 312.71422613 -150.671875 289.15234375 C-152.80100516 286.98333334 -152.80100516 286.98333334 -155 286 C-155 285.34 -155 284.68 -155 284 C-155.66 284 -156.32 284 -157 284 C-159.58256945 281.57554705 -161.7519194 278.73153879 -164 276 C-164.40959961 275.50661133 -164.81919922 275.01322266 -165.24121094 274.50488281 C-192.27888562 241.75813779 -205.12289845 203.45373233 -205 161 C-205.00257813 160.26023926 -205.00515625 159.52047852 -205.0078125 158.75830078 C-204.84120647 116.01344079 -184.43409122 76.62132901 -156 46 C-155.46117187 45.40703125 -154.92234375 44.8140625 -154.3671875 44.203125 C-116.68266394 4.43553732 -52.85080018 -12.95944935 0 0 Z " fill="#173B50" transform="translate(1226,428)"/>
<path d="M0 0 C0.83063965 0.19867676 1.6612793 0.39735352 2.51708984 0.60205078 C15.3046504 3.74653289 27.19856293 8.18528159 39 14 C39.99338379 14.48339844 39.99338379 14.48339844 41.00683594 14.9765625 C79.91215252 34.10841234 109.8672744 68.77201671 124.18457031 109.57226562 C138.86492054 153.2792724 135.48730632 201.02343421 115.0625 242.3125 C106.71925202 258.70376426 95.66884882 272.76679386 83 286 C82.10925781 286.9384375 81.21851563 287.876875 80.30078125 288.84375 C78 291 78 291 76 291 C76 291.66 76 292.32 76 293 C74.20416605 294.59903023 72.41522733 296.0548061 70.5 297.5 C69.91903564 297.94069824 69.33807129 298.38139648 68.73950195 298.83544922 C31.2097001 326.81519034 -13.75257049 338.95965777 -60.375 332.875 C-94.14145708 327.90024482 -126.00109703 312.71422613 -150.671875 289.15234375 C-152.80100516 286.98333334 -152.80100516 286.98333334 -155 286 C-155 285.34 -155 284.68 -155 284 C-155.66 284 -156.32 284 -157 284 C-159.58256945 281.57554705 -161.7519194 278.73153879 -164 276 C-164.40959961 275.50661133 -164.81919922 275.01322266 -165.24121094 274.50488281 C-192.27888562 241.75813779 -205.12289845 203.45373233 -205 161 C-205.00257813 160.26023926 -205.00515625 159.52047852 -205.0078125 158.75830078 C-204.84120647 116.01344079 -184.43409122 76.62132901 -156 46 C-155.46117187 45.40703125 -154.92234375 44.8140625 -154.3671875 44.203125 C-116.68266394 4.43553732 -52.85080018 -12.95944935 0 0 Z M-129.36132812 50.69775391 C-130.87322039 51.89924875 -132.41211346 53.06655659 -133.953125 54.23046875 C-134.96632813 55.10638672 -134.96632813 55.10638672 -136 56 C-136 56.66 -136 57.32 -136 58 C-136.56332031 58.22945313 -137.12664062 58.45890625 -137.70703125 58.6953125 C-159.55360259 71.12589994 -173.3227283 106.51139751 -179.7109375 129.5703125 C-189.3816267 167.76038498 -182.85440068 207.48841673 -163.03417969 241.28710938 C-157.03514587 251.22318616 -150.0180079 259.69604317 -142 268 C-141.20980469 268.85335937 -140.41960937 269.70671875 -139.60546875 270.5859375 C-113.79158269 297.7269056 -76.71460128 310.90366697 -40 313 C-38.96617187 313.06058594 -37.93234375 313.12117188 -36.8671875 313.18359375 C2.10329189 314.19658786 39.08217098 297.38931664 67 271 C67.81082031 270.25363281 68.62164063 269.50726562 69.45703125 268.73828125 C96.66033374 242.82017416 111.07126571 204.74041984 111.99609375 167.6484375 C112.3336503 131.89199325 100.25794445 98.72776067 78 71 C77.34 70.01 76.68 69.02 76 68 C75.34 68 74.68 68 74 68 C73.74863281 67.42507813 73.49726562 66.85015625 73.23828125 66.2578125 C61.65108163 45.13036335 28.04026881 30.68365376 6.22973633 23.94775391 C-2.39025582 21.44740502 -11.0883873 19.981372 -20 19 C-20.72477539 18.91878906 -21.44955078 18.83757812 -22.19628906 18.75390625 C-61.04890107 14.74013392 -99.00439684 26.4917393 -129.36132812 50.69775391 Z " fill="#5795B6" transform="translate(1226,428)"/>
<path d="M0 0 C1.39029769 -0.00668677 1.39029769 -0.00668677 2.8086822 -0.01350862 C3.83375605 -0.01332426 4.85882989 -0.01313989 5.91496658 -0.01294994 C7.54051716 -0.01846498 7.54051716 -0.01846498 9.19890714 -0.02409142 C12.85469223 -0.03516377 16.51044894 -0.0389781 20.16624832 -0.04278088 C22.77746548 -0.04904281 25.38868173 -0.05568936 27.999897 -0.0626936 C35.85380901 -0.08246836 43.70772233 -0.09252566 51.56165302 -0.10142139 C55.25876314 -0.10580277 58.95587182 -0.11116998 62.6529808 -0.11641026 C74.94068861 -0.13342382 87.22839551 -0.14791833 99.51611328 -0.155159 C102.70580674 -0.15706894 105.8955002 -0.15898927 109.08519363 -0.16094494 C109.8779923 -0.16142868 110.67079096 -0.16191242 111.48761383 -0.16241082 C124.33246594 -0.17071236 137.17722495 -0.19605077 150.0220364 -0.22852562 C163.20485524 -0.2615837 176.38762675 -0.27960664 189.57048726 -0.28280324 C196.97407632 -0.28496954 204.37752964 -0.29373558 211.78107834 -0.31926441 C218.74465752 -0.34322041 225.7079885 -0.34680493 232.67160034 -0.33650303 C235.22983105 -0.33600596 237.78807353 -0.34237651 240.3462677 -0.35605907 C243.83446989 -0.37367433 247.32178429 -0.36672205 250.80998611 -0.35352612 C252.33421255 -0.36997998 252.33421255 -0.36997998 253.88923144 -0.38676625 C259.77772432 -0.33285744 263.14246078 0.19461222 267.61644363 4.13422108 C269.83311239 7.45922421 270.38782277 9.17145936 270.61644363 13.13422108 C269.02934194 18.24821542 267.32716617 21.47163877 262.61644363 24.13422108 C256.15134057 25.42032151 249.45625199 25.2805746 242.89374161 25.27466297 C241.84897933 25.27763409 240.80421705 25.28060522 239.7277953 25.28366637 C236.24576423 25.292301 232.76376775 25.29385712 229.28172684 25.29535389 C226.77785037 25.2999855 224.2739746 25.30501062 221.77009964 25.31039906 C214.98325479 25.32348557 208.19642335 25.32999692 201.40956903 25.33440971 C197.16963404 25.33717919 192.9297013 25.34141756 188.68976784 25.34591389 C176.94135335 25.35809428 165.19294066 25.36839917 153.44452 25.37178898 C152.69410459 25.37200854 151.94368918 25.37222811 151.17053391 25.37245433 C150.04231479 25.37278175 150.04231479 25.37278175 148.89130336 25.37311578 C147.3673104 25.37355924 145.84331745 25.3740058 144.31932449 25.37445545 C143.18540941 25.3747876 143.18540941 25.3747876 142.02858695 25.37512645 C129.76295119 25.37907973 117.49737465 25.39655534 105.23176179 25.41981497 C92.62728721 25.4435239 80.02284239 25.45599045 67.41834515 25.4571569 C60.34576285 25.45807339 53.27325793 25.46382023 46.20069695 25.48197651 C39.55470487 25.49897868 32.90883394 25.50063375 26.26281738 25.4918375 C23.82230168 25.491065 21.38177819 25.49543769 18.94128227 25.50529575 C15.6134096 25.51795186 12.28606334 25.5121728 8.95819473 25.50171375 C7.98961904 25.50977016 7.02104335 25.51782656 6.02311689 25.5261271 C-0.44700493 25.47846988 -4.68642243 24.40549176 -9.75855637 20.13422108 C-12.23184563 15.56814859 -12.29040537 11.20952726 -11.38355637 6.13422108 C-7.9880873 1.66649863 -5.48535233 0.01220216 0 0 Z " fill="#193E54" transform="translate(264.3835563659668,225.86577892303467)"/>
<path d="M0 0 C1.32 1.32 2.64 2.64 4 4 C3 6 3 6 2 7 C3.65 7.33 5.3 7.66 7 8 C5.70700306 10.88437779 4.34058637 12.87219421 2 15 C2.33 15 2.66 15 3 15 C5.66666667 15 8.33333333 15 11 15 C11.495 15.99 11.495 15.99 12 17 C11.34 17 10.68 17 10 17 C9.67 17.66 9.34 18.32 9 19 C8.34 19.7425 7.68 20.485 7 21.25 C4.77624315 24.30766567 4.57031351 26.33369887 4 30 C3.01 30.66 2.02 31.32 1 32 C2.485 32.495 2.485 32.495 4 33 C4.33 32.01 4.66 31.02 5 30 C6.33333333 31.33333333 7.66666667 32.66666667 9 34 C8.9765625 36.1640625 8.9765625 36.1640625 8.625 38.625 C8.51414062 39.44226563 8.40328125 40.25953125 8.2890625 41.1015625 C8.19367188 41.72804688 8.09828125 42.35453125 8 43 C8.33 42.67 8.66 42.34 9 42 C9.99 41.195625 10.98 40.39125 12 39.5625 C14.98929966 37.34610067 14.98929966 37.34610067 16 35 C17.32 35 18.64 35 20 35 C20.66 35.66 21.32 36.32 22 37 C21.38125 37.886875 20.7625 38.77375 20.125 39.6875 C17.94871285 42.77279282 17.94871285 42.77279282 17.125 45.6875 C15.50482899 49.01785151 13.37363077 49.69185746 10 51 C9.01 51 8.02 51 7 51 C5.79371992 53.33214148 4.8345262 55.49642139 4 58 C3.34 58 2.68 58 2 58 C2.99 59.98 2.99 59.98 4 62 C4.495 61.01 4.495 61.01 5 60 C6.65 60.33 8.3 60.66 10 61 C10.495 62.98 10.495 62.98 11 65 C10.360625 65.12375 9.72125 65.2475 9.0625 65.375 C8.381875 65.58125 7.70125 65.7875 7 66 C6.67 66.66 6.34 67.32 6 68 C5.34 66.68 4.68 65.36 4 64 C4 64.33 4 64.66 4 65 C2.3540349 66.68711423 0.68762851 68.3545622 -1 70 C0.98 70.99 0.98 70.99 3 72 C2.49396008 74.16874252 2.00016187 75.99967627 1 78 C-0.65 78 -2.3 78 -4 78 C-4 79.32 -4 80.64 -4 82 C-5 84.25 -5 84.25 -6 86 C-5.01 86.680625 -5.01 86.680625 -4 87.375 C-3.34 87.91125 -2.68 88.4475 -2 89 C-2 89.66 -2 90.32 -2 91 C-2.969375 91.804375 -3.93875 92.60875 -4.9375 93.4375 C-8.19375327 95.70684377 -8.19375327 95.70684377 -9 99 C-9.66 99 -10.32 99 -11 99 C-11.33 99.66 -11.66 100.32 -12 101 C-12.66 101 -13.32 101 -14 101 C-14.99 101.66 -15.98 102.32 -17 103 C-20.51724138 102.48275862 -20.51724138 102.48275862 -22 101 C-23.32 101 -24.64 101 -26 101 C-26.66 101.66 -27.32 102.32 -28 103 C-28.66 103 -29.32 103 -30 103 C-30.66 103.99 -31.32 104.98 -32 106 C-32.99 105.01 -32.99 105.01 -34 104 C-34.33 104.66 -34.66 105.32 -35 106 C-31.77208445 108.1519437 -30.71599191 108.20086443 -27 108 C-27 108.66 -27 109.32 -27 110 C-26.34 110.33 -25.68 110.66 -25 111 C-31.29869134 110.49065252 -36.3505198 108.95734866 -42.125 106.4375 C-43.36842163 105.90177368 -43.36842163 105.90177368 -44.63696289 105.35522461 C-64.11170575 96.79099651 -80.22323452 84.21713267 -95 69 C-91.09161134 69 -89.88405893 70.50567876 -87 73 C-86.278125 72.030625 -85.55625 71.06125 -84.8125 70.0625 C-82.41007659 67.13989374 -80.81444757 66.42382751 -77 66 C-75.64973223 63.87060172 -75.64973223 63.87060172 -76.9375 60.875 C-77.288125 59.92625 -77.63875 58.9775 -78 58 C-78.99 60.475 -78.99 60.475 -80 63 C-80.66 62.67 -81.32 62.34 -82 62 C-82.66 62.66 -83.32 63.32 -84 64 C-85.125 61.6875 -85.125 61.6875 -86 59 C-85.34 58.01 -84.68 57.02 -84 56 C-83.67 56 -83.34 56 -83 56 C-82.67 55.34 -82.34 54.68 -82 54 C-81.34 53.34 -80.68 52.68 -80 52 C-80.309375 51.2575 -80.61875 50.515 -80.9375 49.75 C-82 47 -82 47 -82.5 44.8125 C-82.9037763 42.76715335 -82.9037763 42.76715335 -85 41 C-84.67 40.34 -84.34 39.68 -84 39 C-83.34 39 -82.68 39 -82 39 C-81.67 38.01 -81.34 37.02 -81 36 C-80.01 36 -79.02 36 -78 36 C-77.67 35.34 -77.34 34.68 -77 34 C-77 35.32 -77 36.64 -77 38 C-75.68 36.68 -74.36 35.36 -73 34 C-73.33 33.34 -73.66 32.68 -74 32 C-73.34 31.34 -72.68 30.68 -72 30 C-70.68 30.66 -69.36 31.32 -68 32 C-67.67 31.34 -67.34 30.68 -67 30 C-66.01 30.33 -65.02 30.66 -64 31 C-63.01 30.67 -62.02 30.34 -61 30 C-60.34 30.33 -59.68 30.66 -59 31 C-59 32.65 -59 34.3 -59 36 C-62.01031744 36.93423645 -62.86650268 37.04449911 -66 36 C-66.66 36.99 -67.32 37.98 -68 39 C-67.01 39.66 -66.02 40.32 -65 41 C-65 40.34 -65 39.68 -65 39 C-63.02 39 -61.04 39 -59 39 C-58.505 38.01 -58.505 38.01 -58 37 C-57.01 37.33 -56.02 37.66 -55 38 C-54.505 37.01 -54.505 37.01 -54 36 C-54.99 35.505 -54.99 35.505 -56 35 C-56.8125 33.25 -56.8125 33.25 -57 31 C-55.5625 28.25 -55.5625 28.25 -54 26 C-53 29 -53 29 -53.1875 31.9375 C-53.25210383 35.04572044 -53.25210383 35.04572044 -51.4375 37.375 C-47.91751657 39.72165562 -46.16889057 39.7642966 -42 39 C-34.28264524 33.61195878 -27.90567671 25.9586434 -21.3371582 19.24121094 C-19.90239645 17.77614572 -18.46138669 16.31745471 -17.01953125 14.859375 C-15.75266479 13.56725098 -15.75266479 13.56725098 -14.46020508 12.24902344 C-12.097521 10.08914989 -9.74706311 8.61405988 -7 7 C-6.67 6.34 -6.34 5.68 -6 5 C-5.34 5 -4.68 5 -4 5 C-3.67 4.34 -3.34 3.68 -3 3 C-2.01979625 1.9805881 -1.02196992 0.97753644 0 0 Z M-67 32 C-67.33 32.66 -67.66 33.32 -68 34 C-67.01 33.67 -66.02 33.34 -65 33 C-65.66 32.67 -66.32 32.34 -67 32 Z M-71 41 C-70.67 41.99 -70.34 42.98 -70 44 C-69.01 43.67 -68.02 43.34 -67 43 C-67.33 42.34 -67.66 41.68 -68 41 C-68.99 41 -69.98 41 -71 41 Z M8 5 C8.66 5.66 9.32 6.32 10 7 C9.01 7.33 8.02 7.66 7 8 C7.33 7.01 7.66 6.02 8 5 Z M10 29 C10.66 29.66 11.32 30.32 12 31 C11.01 31 10.02 31 9 31 C9.33 30.34 9.66 29.68 10 29 Z M-89 46 C-86.0625 46.8125 -86.0625 46.8125 -83 48 C-82.67 48.99 -82.34 49.98 -82 51 C-82.66 51.66 -83.32 52.32 -84 53 C-84.33 52.34 -84.66 51.68 -85 51 C-85.99 51.495 -85.99 51.495 -87 52 C-89 49 -89 49 -89 46 Z M11 60 C11.66 60.66 12.32 61.32 13 62 C12.01 62.495 12.01 62.495 11 63 C11 62.01 11 61.02 11 60 Z " fill="#173B50" transform="translate(1175,623)"/>
<path d="M0 0 C1.81759204 -0.00107416 3.63518375 -0.00301483 5.45277405 -0.00575256 C10.37014519 -0.01058297 15.287425 -0.00296732 20.20478511 0.00720048 C25.36239812 0.01601362 30.52000855 0.01422288 35.67762756 0.01383972 C44.33848591 0.01477508 52.99930913 0.02344099 61.66015625 0.03710938 C71.65704131 0.05282851 81.65388791 0.05810755 91.65078443 0.05737382 C102.31545932 0.05669693 112.9801195 0.06364661 123.64478993 0.07282043 C126.70789029 0.07494618 129.77098825 0.07566085 132.83408928 0.07605934 C137.65795344 0.0770682 142.48178567 0.08320899 147.30563927 0.09322548 C149.07041986 0.09613181 150.83520414 0.09737966 152.59998703 0.09679794 C176.15772957 0.09197362 176.15772957 0.09197362 181.06274414 3.05541992 C184.57603623 6.89808314 185.6301958 9.78094865 185.51977539 15.14135742 C184.67580589 19.02217443 182.04611012 21.73863461 179.06274414 24.24291992 C175.3921069 25.46646567 172.00981035 25.39101637 168.18754578 25.39009094 C167.37658898 25.39376763 166.56563218 25.39744432 165.73010093 25.40123242 C163.00332916 25.41227591 160.27659548 25.41611421 157.54980469 25.41992188 C155.59852985 25.42618595 153.64725621 25.4328327 151.69598389 25.43983459 C146.38808086 25.45724769 141.08018685 25.4677969 135.77226233 25.47604012 C132.45734802 25.48118892 129.14243652 25.48726467 125.82752419 25.49355125 C115.45955564 25.51260297 105.09159422 25.52683496 94.72361153 25.53516322 C82.74848089 25.5449409 70.77353483 25.57127444 58.79846925 25.61166412 C49.54658527 25.64180031 40.29475429 25.65662967 31.04282218 25.65994424 C25.51493731 25.66229728 19.98724964 25.671291 14.45941734 25.69640541 C9.25964762 25.71964784 4.0602055 25.72393474 -1.13960266 25.71364403 C-3.04797644 25.71314765 -4.95636613 25.71949803 -6.86469078 25.73320007 C-9.47055683 25.75086369 -12.07524014 25.74384048 -14.68110657 25.73066711 C-15.43588187 25.74163636 -16.19065717 25.75260561 -16.96830446 25.76390725 C-22.09242574 25.70138765 -25.00456126 24.49432457 -28.93725586 21.24291992 C-31.92061506 16.76788112 -31.5284193 12.4866164 -30.93725586 7.24291992 C-29.49975586 4.18041992 -29.49975586 4.18041992 -26.93725586 2.24291992 C-18.14993227 -0.5029932 -9.10736336 -0.0312617 0 0 Z " fill="#193E54" transform="translate(283.937255859375,288.757080078125)"/>
<path d="M0 0 C2.15911865 1.46405029 2.15911865 1.46405029 4 4 C4.58251306 7.14892941 4.50502404 10.2563076 4.45410156 13.45019531 C4.45468567 14.40662933 4.45526978 15.36306335 4.45587158 16.34848022 C4.45308563 19.50873144 4.42196885 22.66803862 4.390625 25.828125 C4.38316445 28.01958704 4.37747064 30.21105576 4.37347412 32.40252686 C4.35820329 38.1697838 4.31890856 43.93663765 4.2746582 49.70373535 C4.233737 55.5888931 4.21546981 61.47411599 4.1953125 67.359375 C4.15241607 78.90642708 4.08414687 90.45318002 4 102 C5.18396362 102.44593506 5.18396362 102.44593506 6.3918457 102.90087891 C9.15892582 104.06697407 10.315112 105.07592841 12.1875 107.375 C12.67605469 107.96023438 13.16460938 108.54546875 13.66796875 109.1484375 C17.90956898 115.04438621 17.83087624 120.90363863 17 128 C14.69464672 134.06822331 10.52572401 137.69004289 5.1875 141.1875 C-1.3966728 143.6330499 -6.47019428 142.98226245 -13 141 C-13 141.66 -13 142.32 -13 143 C-13.66 143 -14.32 143 -15 143 C-15.20625 143.53625 -15.4125 144.0725 -15.625 144.625 C-17.53250426 147.91978009 -20.04819384 150.59363628 -23 153 C-23.66 153 -24.32 153 -25 153 C-25 153.66 -25 154.32 -25 155 C-25.66 155 -26.32 155 -27 155 C-27.40091858 155.88840324 -27.40091858 155.88840324 -27.80993652 156.79475403 C-29.01820088 159.03372712 -30.2465341 160.49418743 -32.04101562 162.28393555 C-32.65505249 162.90104904 -33.26908936 163.51816254 -33.9017334 164.15397644 C-34.56322388 164.8082814 -35.22471436 165.46258636 -35.90625 166.13671875 C-36.58675415 166.81676468 -37.2672583 167.49681061 -37.96838379 168.19746399 C-39.40510521 169.63116874 -40.84425191 171.06244666 -42.28564453 172.49145508 C-44.49700587 174.68453063 -46.70023114 176.8855323 -48.90234375 179.08789062 C-50.29900755 180.47964011 -51.69612744 181.87093207 -53.09375 183.26171875 C-54.08598572 184.25228523 -54.08598572 184.25228523 -55.0982666 185.26286316 C-55.71230347 185.87052017 -56.32634033 186.47817719 -56.95898438 187.10424805 C-57.76934143 187.90888741 -57.76934143 187.90888741 -58.59606934 188.7297821 C-60.88614887 190.80175053 -62.16400689 191.01856682 -65.3125 191.375 C-69 191 -69 191 -71.9375 188.875 C-74.39500805 185.44938272 -74.4399304 184.1260875 -74 180 C-69.73735094 172.20285294 -61.93476543 165.93605744 -55.58984375 159.8515625 C-54.73274811 159.02630066 -53.87565247 158.20103882 -52.99258423 157.35076904 C-45.73954955 150.37394727 -45.73954955 150.37394727 -42.16821289 147.0390625 C-39.48645665 144.52740609 -36.8487232 141.97576172 -34.21484375 139.4140625 C-33.38999985 138.66258942 -32.56515594 137.91111633 -31.71531677 137.13687134 C-28.30600047 133.76128396 -26.20865026 131.50942297 -25.53811646 126.65863037 C-25.5168091 123.19407517 -25.5168091 123.19407517 -25.8271637 119.89730835 C-26.14902077 114.50191886 -23.85756288 110.94111466 -20.625 106.75 C-18 104 -18 104 -15.36843872 102.88276672 C-12.56150482 101.09091583 -12.56150482 101.09091583 -12.41891479 97.11100769 C-12.41355154 95.44913326 -12.43608662 93.78703574 -12.47998047 92.12573242 C-12.48611359 90.76427849 -12.48611359 90.76427849 -12.49237061 89.37532043 C-12.5111818 86.36803589 -12.56471125 83.36233773 -12.6171875 80.35546875 C-12.63413252 78.26664655 -12.64842977 76.17780133 -12.66018677 74.08894348 C-12.69632527 68.58191344 -12.75980392 63.07557825 -12.83154297 57.56890869 C-12.94468459 48.76531466 -13.02991266 39.96166544 -13.08993912 31.15755653 C-13.11683807 28.08291011 -13.16345656 25.00899278 -13.2116394 21.93461609 C-13.22893459 20.04390129 -13.24550351 18.15317966 -13.26123047 16.26245117 C-13.27987152 15.40976654 -13.29851257 14.55708191 -13.31771851 13.67855835 C-13.3371821 8.69098109 -12.75542375 5.33243772 -10 1 C-6.68343166 -1.63038179 -3.94300516 -1.15004317 0 0 Z " fill="#5795B6" transform="translate(1195,472)"/>
<path d="M0 0 C23.43 0 46.86 0 71 0 C71.5775 5.836875 72.155 11.67375 72.75 17.6875 C74.04758837 30.40733785 75.57025214 42.93634342 78.265625 55.44921875 C79 59 79 59 79 62 C57.88 62 36.76 62 15 62 C9.54453026 47.97164924 4.98341913 34.94841499 2.3125 20.3125 C2.19293945 19.66015381 2.07337891 19.00780762 1.95019531 18.33569336 C0.90269544 12.20326474 0.52265422 6.27185065 0 0 Z " fill="#0C1822" transform="translate(625,518)"/>
<path d="M0 0 C1.25908676 0.00222061 2.51817352 0.00444122 3.81541443 0.00672913 C4.50806396 0.0065831 5.2007135 0.00643707 5.91435242 0.00628662 C8.21400537 0.00698577 10.51357828 0.01477823 12.81321716 0.02259827 C14.40362504 0.02446244 15.99403349 0.02588635 17.58444214 0.02688599 C21.77827021 0.03071123 25.97206386 0.04054156 30.1658783 0.05158997 C34.44220006 0.06180395 38.71852736 0.06638358 42.99485779 0.07142639 C51.39135799 0.08216383 59.78783017 0.09924032 68.18431091 0.12025452 C67.72383641 3.60912676 67.25731198 7.09716538 66.78977966 10.58509827 C66.66083313 11.56265076 66.5318866 12.54020325 66.39903259 13.54737854 C64.13639897 30.35401059 59.8081816 46.87251314 52.18431091 62.12025452 C31.39431091 62.12025452 10.60431091 62.12025452 -10.81568909 62.12025452 C-10.17494493 56.35355709 -9.45216018 50.79237757 -8.37818909 45.12025452 C-6.06629447 32.38225153 -4.68057339 19.68011801 -4.15699768 6.74354553 C-3.870444 0.16530176 -3.870444 0.16530176 0 0 Z " fill="#0C1822" transform="translate(884.8156890869141,517.8797454833984)"/>
<path d="M0 0 C20.79 0 41.58 0 63 0 C61.68 7.92 60.36 15.84 59 24 C58.32962065 30.68378213 57.71961055 37.30710539 57.25 44 C56.8375 49.61 56.425 55.22 56 61 C32.57 61 9.14 61 -15 61 C-14.37516348 51.62745215 -13.77002929 43.11168644 -11.8125 34.0625 C-11.5954541 33.03979004 -11.3784082 32.01708008 -11.15478516 30.96337891 C-8.7202278 19.99667149 -5.02972608 10.05945217 0 0 Z " fill="#0C1822" transform="translate(640,439)"/>
<path d="M0 0 C7.94749816 10.95967355 10.53683006 27.36898987 12.90205383 40.36238098 C13.02153381 41.01448547 13.14101379 41.66658997 13.26411438 42.3384552 C14.31201344 48.47105492 14.69188427 54.40284623 15.21455383 60.67488098 C-8.21544617 60.67488098 -31.64544617 60.67488098 -55.78544617 60.67488098 C-56.77544617 49.45488098 -57.76544617 38.23488098 -58.78544617 26.67488098 C-60.88261574 13.08910556 -60.88261574 13.08910556 -63.78544617 -0.32511902 C-55.75378632 -0.52526324 -47.72199104 -0.70898876 -39.68949413 -0.87170696 C-35.95976169 -0.94777919 -32.23033278 -1.02952268 -28.50102234 -1.12419128 C-24.90266299 -1.21532759 -21.30426821 -1.29161312 -17.70536232 -1.35756874 C-16.33171645 -1.38536109 -14.95816847 -1.41852235 -13.58478355 -1.45711327 C-11.66267103 -1.51020975 -9.74001849 -1.54253211 -7.81742859 -1.57389832 C-6.72266708 -1.59832504 -5.62790558 -1.62275177 -4.49996948 -1.6479187 C-1.78544617 -1.32511902 -1.78544617 -1.32511902 0 0 Z " fill="#0C1822" transform="translate(937.7854461669922,439.3251190185547)"/>
<path d="M0 0 C18.81 0 37.62 0 57 0 C59.06950957 8.96787482 60.8420999 17.51548851 62.125 26.5625 C62.37830078 28.22635742 62.37830078 28.22635742 62.63671875 29.92382812 C64.13587183 40.36478011 64.46601601 50.32032026 65 61 C43.55 61 22.1 61 0 61 C0 40.87 0 20.74 0 0 Z " fill="#0C1822" transform="translate(798,439)"/>
<path d="M0 0 C1.86170334 0.0001133 1.86170334 0.0001133 3.76101685 0.00022888 C5.12046346 0.00533589 6.47990966 0.01055189 7.83935547 0.01586914 C9.22655181 0.01773397 10.61374881 0.01915757 12.00094604 0.02015686 C15.65388809 0.02397691 19.30679044 0.03380284 22.9597168 0.04486084 C26.68651797 0.05508595 30.41332556 0.05965684 34.14013672 0.06469727 C41.45395691 0.07542556 48.76774438 0.09249585 56.08154297 0.11352539 C57.61855739 4.72456865 56.80419642 9.12980986 56.39404297 13.92602539 C56.30372803 14.99175781 56.21341309 16.05749023 56.12036133 17.15551758 C52.47672436 56.718344 52.47672436 56.718344 47.08154297 62.11352539 C45.36288888 62.20711729 43.64038553 62.2309715 41.91918945 62.22705078 C40.80265991 62.22692993 39.68613037 62.22680908 38.5357666 62.22668457 C37.35333374 62.2215686 36.17090088 62.21645264 34.95263672 62.21118164 C33.87244263 62.21017456 32.79224854 62.20916748 31.67932129 62.20812988 C27.62588446 62.20287913 23.5724627 62.18891802 19.51904297 62.17602539 C10.46466797 62.15540039 1.41029297 62.13477539 -7.91845703 62.11352539 C-7.91845703 41.98352539 -7.91845703 21.85352539 -7.91845703 1.11352539 C-5.19367551 -0.24886537 -3.05004848 -0.00617419 0 0 Z " fill="#0C1822" transform="translate(805.91845703125,517.886474609375)"/>
<path d="M0 0 C18.48 0 36.96 0 56 0 C56 20.13 56 40.26 56 61 C52.55770006 61.86057498 50.09832983 62.12866322 46.609375 62.1328125 C44.97790527 62.13571289 44.97790527 62.13571289 43.31347656 62.13867188 C42.1375293 62.13416016 40.96158203 62.12964844 39.75 62.125 C38.53538086 62.12306641 37.32076172 62.12113281 36.06933594 62.11914062 C21.37182993 62.05204575 6.68660369 61.54075235 -8 61 C-6.34810127 12.69620253 -6.34810127 12.69620253 0 0 Z " fill="#0C1822" transform="translate(723,439)"/>
<path d="M0 0 C0.81436523 0.00193359 1.62873047 0.00386719 2.46777344 0.00585938 C18.31282265 0.10653388 34.16376297 0.67890882 50 1.125 C50 21.255 50 41.385 50 62.125 C31.85 62.125 13.7 62.125 -5 62.125 C-9.46175294 42.49328706 -14 21.53121747 -14 1.125 C-9.30559486 0.20078899 -4.76761286 -0.02848766 0 0 Z " fill="#0C1822" transform="translate(729,517.875)"/>
<path d="M0 0 C2.52914956 -0.00322235 5.05829893 -0.00658711 7.58744812 -0.01008606 C12.84240146 -0.01602163 18.09733847 -0.01793128 23.35229492 -0.01733398 C29.40504737 -0.01672909 35.45771192 -0.02738486 41.51044208 -0.04307765 C47.38429384 -0.05775535 53.25811075 -0.0613217 59.13197899 -0.06072426 C61.61222892 -0.06190092 64.09247957 -0.06630504 66.57271767 -0.07405663 C70.02942932 -0.08386703 73.48591152 -0.08097639 76.94262695 -0.07495117 C77.95620773 -0.08057068 78.96978851 -0.08619019 80.01408386 -0.09197998 C86.89499221 -0.06154383 93.20845689 0.15583808 99.01171875 4.23046875 C101.74998861 8.13042886 102.38400227 11.435165 102.07421875 16.16796875 C100.65392145 19.43465254 98.81203519 21.88645505 96.07421875 24.16796875 C92.94373155 25.21146448 90.75526188 25.29879022 87.47012329 25.30841064 C85.72042488 25.31697586 85.72042488 25.31697586 83.93537903 25.32571411 C82.65426743 25.32683197 81.37315582 25.32794983 80.05322266 25.32910156 C78.69145066 25.33373048 77.32967996 25.33875524 75.96791077 25.34414673 C72.26745798 25.35726473 68.56702333 25.36371439 64.86655092 25.36815739 C62.55469169 25.37108879 60.24283742 25.37519371 57.93098068 25.37966156 C50.69775021 25.39333428 43.46453106 25.40300231 36.23128855 25.40686345 C27.88130256 25.41134524 19.53148018 25.42889958 11.18154395 25.45786405 C4.72710288 25.4794764 -1.72729214 25.48956747 -8.18176901 25.49090457 C-12.03677448 25.49195283 -15.8916261 25.49786505 -19.74659348 25.51572418 C-23.37291828 25.53219748 -26.99897346 25.53436414 -30.62532234 25.52558517 C-32.58886295 25.52444717 -34.55239458 25.53816988 -36.5158844 25.55233765 C-37.68798965 25.54676849 -38.86009491 25.54119934 -40.06771851 25.53546143 C-41.08424688 25.53692799 -42.10077526 25.53839455 -43.14810753 25.53990555 C-47.23464975 24.9927083 -49.87569991 23.25719786 -52.70703125 20.3203125 C-55.02410644 16.22829831 -54.67212496 11.70654537 -53.92578125 7.16796875 C-51.48828125 4.04296875 -51.48828125 4.04296875 -48.92578125 2.16796875 C-48.59578125 1.83796875 -48.26578125 1.50796875 -47.92578125 1.16796875 C-44.95993217 0.92205436 -42.01797354 0.74482664 -39.04614258 0.6159668 C-38.11093938 0.57392718 -37.17573618 0.53188757 -36.21219349 0.48857403 C-24.14508034 -0.0055014 -12.07526985 0.0036637 0 0 Z " fill="#193E54" transform="translate(306.92578125,352.83203125)"/>
<path d="M0 0 C19.47 0 38.94 0 59 0 C37.43275116 33.89139104 3.43083504 60.9130422 -36 71 C-34.53668995 67.74080943 -32.67830355 65.28333467 -30.375 62.5625 C-21.60323194 51.70070778 -15.63026833 39.67757169 -10 27 C-9.525625 25.93652344 -9.05125 24.87304688 -8.5625 23.77734375 C-5.19398591 15.9560751 -2.71572236 8.14716709 0 0 Z " fill="#0C1822" transform="translate(868,598)"/>
<path d="M0 0 C19.14 0 38.28 0 58 0 C59.72162686 4.59100495 61.43817861 9.1828112 63.14135742 13.78051758 C64.17278648 16.5494155 65.22022228 19.31212294 66.27099609 22.07373047 C66.89542063 23.72366671 67.50577941 25.37891439 68.11328125 27.03515625 C73.2351572 40.27753371 80.92852085 52.88012398 89.63671875 64.06640625 C91 66 91 66 91 68 C91.66 68 92.32 68 93 68 C93.33 68.99 93.66 69.98 94 71 C69.09505552 65.45970515 43.5011519 49.39278796 25 32 C25 31.34 25 30.68 25 30 C24.34 30 23.68 30 23 30 C23 29.34 23 28.68 23 28 C22.34 28 21.68 28 21 28 C21 27.34 21 26.68 21 26 C20.34 26 19.68 26 19 26 C19 25.34 19 24.68 19 24 C18.34 24 17.68 24 17 24 C0 5.76556017 0 5.76556017 0 0 Z " fill="#0C1821" transform="translate(651,598)"/>
<path d="M0 0 C13.04458076 2.92494466 25.31281779 8.66333507 37 15 C37.91265625 15.49242187 38.8253125 15.98484375 39.765625 16.4921875 C46.4287617 20.29662362 52.41480289 24.98746051 58.41162109 29.74511719 C59.94854099 30.95934533 61.49945753 32.15579185 63.05078125 33.3515625 C64.41783203 34.41503906 64.41783203 34.41503906 65.8125 35.5 C66.62332031 36.1290625 67.43414063 36.758125 68.26953125 37.40625 C68.84058594 37.9321875 69.41164063 38.458125 70 39 C70 39.66 70 40.32 70 41 C70.66 41 71.32 41 72 41 C72 41.66 72 42.32 72 43 C72.66 43 73.32 43 74 43 C76.54758726 45.46496281 78.74003081 48.27214656 81 51 C81.680625 51.81726563 82.36125 52.63453125 83.0625 53.4765625 C87.18933426 58.52568169 90.49327191 63.38923506 94 69 C74.86 69 55.72 69 36 69 C31.545 57.12 31.545 57.12 27 45 C17.14685292 20.74877928 17.14685292 20.74877928 0 2 C0 1.34 0 0.68 0 0 Z " fill="#0C1822" transform="translate(833,351)"/>
<path d="M0 0 C-0.556875 0.64324219 -1.11375 1.28648437 -1.6875 1.94921875 C-18.0034002 21.26922895 -27.56444097 44.38043473 -36 68 C-54.81 68 -73.62 68 -93 68 C-74.08507932 34.89888882 -39.72931151 10.40887691 -3.68359375 -0.71484375 C-2 -1 -2 -1 0 0 Z " fill="#0C1822" transform="translate(744,352)"/>
<path d="M0 0 C0 24.09 0 48.18 0 73 C-16.83 73 -33.66 73 -51 73 C-43.99411808 53.15000121 -43.99411808 53.15000121 -40.5625 46.125 C-40.17690918 45.32819824 -39.79131836 44.53139648 -39.39404297 43.71044922 C-33.648196 32.02603743 -15.63570087 0 0 0 Z " fill="#0C1821" transform="translate(779,347)"/>
<path d="M0 0 C9.50015216 3.80006087 17.79264038 9.84175592 24 18 C24 18.66 24 19.32 24 20 C24.66 20 25.32 20 26 20 C28.28209238 22.99259676 30.09474602 26.32081805 32 29.5625 C32.5772583 30.54162354 33.1545166 31.52074707 33.74926758 32.52954102 C40.94059031 45.00898025 47.03994188 58.13979656 51 72 C34.17 72 17.34 72 0 72 C0 48.24 0 24.48 0 0 Z " fill="#0C1822" transform="translate(798,348)"/>
<path d="M0 0 C0.86825912 0.00222061 1.73651825 0.00444122 2.63108826 0.00672913 C4.12315796 0.0069104 4.12315796 0.0069104 5.64537048 0.00709534 C6.69825256 0.0122113 7.75113464 0.01732727 8.83592224 0.02259827 C10.27928955 0.02410889 10.27928955 0.02410889 11.7518158 0.02565002 C15.36189457 0.03089991 18.97195642 0.04486104 22.58201599 0.05775452 C30.64639099 0.07837952 38.71076599 0.09900452 47.01951599 0.12025452 C47.01951599 24.54025452 47.01951599 48.96025452 47.01951599 74.12025452 C20.33482912 59.29542848 6.04125939 29.3147711 -2.98048401 1.12025452 C-1.98048401 0.12025452 -1.98048401 0.12025452 0 0 Z " fill="#0C1821" transform="translate(731.9804840087891,597.8797454833984)"/>
<path d="M0 0 C0.86825912 0.00222061 1.73651825 0.00444122 2.63108826 0.00672913 C3.61202957 0.00680466 4.59297089 0.00688019 5.6036377 0.00695801 C6.6702916 0.01211929 7.7369455 0.01728058 8.83592224 0.02259827 C9.92211349 0.02401321 11.00830475 0.02542816 12.12741089 0.02688599 C15.61230674 0.03250403 19.09713941 0.04505959 22.58201599 0.05775452 C24.93813486 0.06276719 27.29425473 0.0673305 29.65037537 0.07142639 C35.44011063 0.08247933 41.2298088 0.09923501 47.01951599 0.12025452 C42.03636185 25.95211352 25.05142046 55.93607232 3.45701599 71.18275452 C1.98415799 72.17138523 0.50732299 73.15426709 -0.98048401 74.12025452 C-3.22834807 70.52132458 -3.22832368 67.53885067 -3.22340393 63.34803772 C-3.22530228 62.67606354 -3.22720062 62.00408936 -3.22915649 61.31175232 C-3.23285143 59.09806022 -3.22218129 56.88469853 -3.21095276 54.67103577 C-3.20976045 53.13215168 -3.2093079 51.59326685 -3.20956421 50.05438232 C-3.20800174 46.83402431 -3.19972792 43.61377784 -3.18629456 40.39344788 C-3.16926218 36.25713015 -3.16548155 32.12093445 -3.16623974 27.98458576 C-3.16596847 24.80969062 -3.16049494 21.63482237 -3.1532383 18.45993614 C-3.15004802 16.93404023 -3.14808339 15.40814127 -3.14734459 13.8822422 C-3.14518723 11.75620395 -3.13645753 9.6302978 -3.12574768 7.50428772 C-3.12193588 6.29279556 -3.11812408 5.08130341 -3.11419678 3.83309937 C-2.93404908 0.17815476 -2.93404908 0.17815476 0 0 Z " fill="#0C1821" transform="translate(800.9804840087891,597.8797454833984)"/>
<path d="M0 0 C2.4375 2.125 2.4375 2.125 4 5 C4 8.125 4 8.125 3 11 C-1.87696258 15.84162227 -9.5098667 15.39381496 -16 16 C-17.01191406 16.09796875 -18.02382813 16.1959375 -19.06640625 16.296875 C-23.34507779 16.52643115 -25.24795696 16.59463869 -28.6875 13.875 C-30 11 -30 11 -30.125 7.875 C-29 5 -29 5 -26.4609375 3.39453125 C-22.42215411 1.76716593 -18.80462206 1.22480563 -14.5 0.8125 C-13.39978516 0.6897168 -13.39978516 0.6897168 -12.27734375 0.56445312 C-8.18517938 0.12888286 -4.11366293 -0.28814032 0 0 Z " fill="#193E54" transform="translate(744,207)"/>
<path d="M0 0 C2.1953125 1.58203125 2.1953125 1.58203125 4 4 C4.2421875 7.35546875 4.2421875 7.35546875 3.875 11.1875 C3.77977051 12.18571777 3.77977051 12.18571777 3.68261719 13.20410156 C3.4843054 15.13928622 3.24300311 17.06991795 3 19 C2.88398438 19.95003906 2.76796875 20.90007812 2.6484375 21.87890625 C2.04326162 25.48029604 1.3948217 27.61614557 -1.25 30.1875 C-4.88585479 31.26172983 -6.63043393 30.64734341 -10 29 C-12.56479113 25.15281331 -12.06421849 23.30693214 -11.6875 18.75 C-11.58824219 17.46609375 -11.48898437 16.1821875 -11.38671875 14.859375 C-10.34911243 4.5042735 -10.34911243 4.5042735 -8.3125 1.5625 C-5.26222457 -0.49849691 -3.61360931 -0.60226822 0 0 Z " fill="#193E54" transform="translate(466,484)"/>
<path d="M0 0 C1.04220703 -0.01836914 1.04220703 -0.01836914 2.10546875 -0.03710938 C6.49206351 -0.04950089 10.11066683 0.38404584 14.125 2.1875 C16.125 5.1875 16.125 5.1875 16 8.75 C15.125 12.1875 15.125 12.1875 13.37304688 13.38574219 C10.87021847 14.27836692 8.93497271 14.44594168 6.28125 14.453125 C5.36472656 14.45570313 4.44820312 14.45828125 3.50390625 14.4609375 C2.07884766 14.44933594 2.07884766 14.44933594 0.625 14.4375 C-0.32503906 14.44523438 -1.27507813 14.45296875 -2.25390625 14.4609375 C-3.62869141 14.45707031 -3.62869141 14.45707031 -5.03125 14.453125 C-5.86462891 14.45086914 -6.69800781 14.44861328 -7.55664062 14.44628906 C-10.10277364 14.16207455 -11.71395426 13.54864701 -13.875 12.1875 C-15.27435013 9.38879973 -15.12765405 7.28251208 -14.875 4.1875 C-13.50217774 2.19690773 -12.53105723 1.41569382 -10.2578125 0.625 C-6.84463272 -0.00168219 -3.45765786 0.00317216 0 0 Z " fill="#183E53" transform="translate(781.875,204.8125)"/>
<path d="M0 0 C3.625 0.4375 3.625 0.4375 5.6171875 2.49609375 C7.91082984 5.85623515 9.67425933 9.25134533 11.375 12.9375 C11.69082031 13.58847656 12.00664062 14.23945312 12.33203125 14.91015625 C14.02353977 18.53481736 15.145121 21.42304497 14.625 25.4375 C13.06378564 27.73823694 11.8588395 28.35134861 9.25 29.3125 C5.60839489 29.48590977 4.50299047 28.71608625 1.625 26.4375 C-0.33295694 23.45270009 -1.81812225 20.29910351 -3.3125 17.0625 C-3.73595703 16.21171875 -4.15941406 15.3609375 -4.59570312 14.484375 C-7.54106983 8.23338185 -7.54106983 8.23338185 -6.75390625 4.4609375 C-4.58377506 1.27643903 -3.94705531 0.51165532 0 0 Z " fill="#193E54" transform="translate(483.375,631.5625)"/>
<path d="M0 0 C4.03554592 0.94176943 6.50087742 2.31489059 9.88671875 4.67578125 C10.89089844 5.36285156 11.89507813 6.04992187 12.9296875 6.7578125 C19.03961922 11.40273944 19.03961922 11.40273944 20.57421875 14.80078125 C20.74387512 17.60011134 19.96944543 19.38968193 18.69921875 21.86328125 C15.81879749 23.30349188 13.9065696 23.17982123 10.69921875 22.86328125 C8.31135977 21.54752222 6.30043635 20.2839153 4.13671875 18.67578125 C3.31010742 18.09473633 3.31010742 18.09473633 2.46679688 17.50195312 C-1.12978016 14.92077981 -4.40551312 12.21683204 -7.30078125 8.86328125 C-7.30078125 5.17578125 -7.30078125 5.17578125 -6.30078125 1.86328125 C-3.30078125 -0.13671875 -3.30078125 -0.13671875 0 0 Z " fill="#193E54" transform="translate(579.30078125,748.13671875)"/>
<path d="M0 0 C2.3125 1.4375 2.3125 1.4375 4 3 C4 3.66 4 4.32 4 5 C4.66 5 5.32 5 6 5 C7.66979863 6.85961588 9.18177523 8.70236364 10.6875 10.6875 C11.11611328 11.21794922 11.54472656 11.74839844 11.98632812 12.29492188 C13.96988506 14.89814072 15.02630676 16.42207326 14.875 19.74609375 C13.72168004 22.71692239 12.61622465 24.16157187 10 26 C5.82484366 25.94737198 4.25708022 25.2299459 1.11328125 22.41796875 C0.16521457 21.3538661 -0.76818313 20.2765369 -1.6875 19.1875 C-2.39616211 18.38602539 -2.39616211 18.38602539 -3.11914062 17.56835938 C-4.43658642 16.06613857 -5.71947564 14.53381489 -7 13 C-7.90878906 11.92878906 -7.90878906 11.92878906 -8.8359375 10.8359375 C-10 9 -10 9 -9.9375 5.4375 C-9 2 -9 2 -7.25 0 C-4.31767436 -1.30325584 -3.00813728 -1.05284805 0 0 Z " fill="#193E54" transform="translate(1050,309)"/>
<path d="M0 0 C2.55949546 1.85342775 2.97918798 2.93756393 4 6 C4.41996797 9.30138307 4.60334865 12.61692861 4.8125 15.9375 C4.88919922 16.84435547 4.96589844 17.75121094 5.04492188 18.68554688 C5.45072129 25.3299011 5.45072129 25.3299011 3.234375 28.625 C1 30 1 30 -2.5625 30.0625 C-6 29 -6 29 -7.875 27.125 C-9.55094471 22.46959802 -9.77135072 17.91595946 -10 13 C-10.06445312 12.15050781 -10.12890625 11.30101562 -10.1953125 10.42578125 C-10.38101971 6.68068583 -10.41897202 4.66068665 -8.375 1.4375 C-5.31352771 -0.41549639 -3.5214898 -0.5244772 0 0 Z " fill="#193E54" transform="translate(464,535)"/>
<path d="M0 0 C3.70352915 2.53743055 4.25700142 6.62755133 5.25 10.75 C5.435625 11.4409375 5.62125 12.131875 5.8125 12.84375 C6.96909408 17.50517461 7.14087192 21.23939831 6 26 C3.8125 28.0625 3.8125 28.0625 1 29 C-2.125 28.6875 -2.125 28.6875 -5 27 C-6.46528174 24.1779759 -7.22576895 22.03806453 -8 19 C-8.31324219 17.85660156 -8.62648438 16.71320312 -8.94921875 15.53515625 C-11.36822288 5.8081059 -11.36822288 5.8081059 -9.6953125 2.13671875 C-6.65992086 -1.68899376 -4.53870753 -1.11152021 0 0 Z " fill="#193E54" transform="translate(472,585)"/>
<path d="M0 0 C2.87795764 2.57501473 3.92067893 4.06797739 4.25 7.9375 C2.36513473 12.55541992 -0.8829715 14.37640341 -5 17 C-6.27617188 17.84691406 -6.27617188 17.84691406 -7.578125 18.7109375 C-15.17396882 23.55499359 -15.17396882 23.55499359 -20 23 C-22.64730985 21.0681793 -23.7745225 19.77892227 -24.6875 16.625 C-23.57574951 12.38013448 -20.40322937 10.46421124 -17 8 C-16.02289062 7.28714844 -15.04578125 6.57429687 -14.0390625 5.83984375 C-4.64996006 -0.73252796 -4.64996006 -0.73252796 0 0 Z " fill="#193E54" transform="translate(989,749)"/>
<path d="M0 0 C1.10698242 0.11891602 1.10698242 0.11891602 2.23632812 0.24023438 C6.84857237 0.81010278 10.58340602 1.74969371 14.5625 4.3125 C15.6875 7.75 15.6875 7.75 15.5625 11.3125 C13.96875 13.54296875 13.96875 13.54296875 11.5625 15.3125 C6.85446936 15.6801296 2.23564482 14.92619609 -2.4375 14.3125 C-3.43910156 14.19648438 -4.44070313 14.08046875 -5.47265625 13.9609375 C-9.50783292 13.35476958 -11.75510783 12.99489217 -14.6875 10.0625 C-15.69126244 6.38203773 -15.22364074 4.6615139 -13.4375 1.3125 C-9.03311077 -1.2851738 -4.86383619 -0.64653948 0 0 Z " fill="#193E54" transform="translate(834.4375,207.6875)"/>
<path d="M0 0 C0.96292969 0.03544922 1.92585937 0.07089844 2.91796875 0.10742188 C4.30435547 0.17219727 4.30435547 0.17219727 5.71875 0.23828125 C6.56373047 0.27606689 7.40871094 0.31385254 8.27929688 0.3527832 C10.5 0.6875 10.5 0.6875 13.5 2.6875 C14.4375 6.0625 14.4375 6.0625 14.5 9.6875 C13.1875 11.87890625 13.1875 11.87890625 10.5 13.6875 C6.84750865 14.31379563 3.26044324 14.29079496 -0.4375 14.25 C-1.42685547 14.27384766 -2.41621094 14.29769531 -3.43554688 14.32226562 C-8.26385468 14.31252459 -10.71076273 14.27967185 -14.66015625 11.31640625 C-16.5 8.6875 -16.5 8.6875 -17 6.0625 C-16.41387884 3.27842451 -15.76717689 2.36689029 -13.5 0.6875 C-9.00570093 -0.81059969 -4.69176014 -0.22924932 0 0 Z " fill="#193E54" transform="translate(784.5,809.3125)"/>
<path d="M0 0 C2.375 1.625 2.375 1.625 4 4 C4.5625 7 4.5625 7 4 10 C0.20552969 13.80173941 -3.82949455 15.12205491 -8.9375 16.3125 C-9.62779297 16.49361328 -10.31808594 16.67472656 -11.02929688 16.86132812 C-15.31739 17.90591574 -18.74430312 18.26212173 -23 17 C-25.24875804 13.90795769 -26.13255752 12.13999471 -25.6875 8.3125 C-23.1796577 4.87582722 -19.91838481 4.15208324 -16 3 C-15.16210938 2.72027344 -14.32421875 2.44054687 -13.4609375 2.15234375 C-4.5161373 -0.75268955 -4.5161373 -0.75268955 0 0 Z " fill="#193E54" transform="translate(896,794)"/>
<path d="M0 0 C1.70504121 2.38705769 2.25 3.79340217 2.25 6.75 C-0.47040857 10.24313163 -2.16597853 11.60003207 -6.4921875 12.7109375 C-7.86736634 12.87133121 -9.24537075 13.00895642 -10.625 13.125 C-11.30691406 13.20621094 -11.98882813 13.28742187 -12.69140625 13.37109375 C-17.1855313 13.84190685 -21.3108789 13.78468236 -25.75 12.75 C-28.08043558 9.25434664 -28.33763244 7.8634271 -27.75 3.75 C-23.89345736 -0.26258772 -20.09780292 -1.05436005 -14.75 -1.5625 C-13.70199219 -1.69108398 -13.70199219 -1.69108398 -12.6328125 -1.82226562 C-8.08978425 -2.32371308 -3.84933006 -2.74952147 0 0 Z " fill="#193E54" transform="translate(847.75,806.25)"/>
<path d="M0 0 C1.9375 2.25 1.9375 2.25 3 5 C2.546875 8.02734375 2.546875 8.02734375 1 11 C-1.72326316 12.12569768 -3.84785357 12.77222462 -6.6875 13.3125 C-7.38294922 13.46783203 -8.07839844 13.62316406 -8.79492188 13.78320312 C-20.80916314 16.39694562 -20.80916314 16.39694562 -25 15 C-26.86985013 12.47570233 -27.00424855 11.10408936 -26.875 7.9375 C-25.81027459 4.3630647 -25.17153843 3.87386315 -22 2 C-19.22934376 1.03122622 -16.42011861 0.34882762 -13.5625 -0.3125 C-12.81162109 -0.50650391 -12.06074219 -0.70050781 -11.28710938 -0.90039062 C-6.91416252 -1.93497524 -4.04715724 -2.41768382 0 0 Z " fill="#193E54" transform="translate(693,217)"/>
<path d="M0 0 C2.45437933 1.59162347 4.58377146 3.47793465 6.75 5.4375 C7.32621094 5.94087891 7.90242187 6.44425781 8.49609375 6.96289062 C15.53737907 13.14248018 15.53737907 13.14248018 16 18 C15.4375 20.1875 15.4375 20.1875 14 22 C11.1875 23.4375 11.1875 23.4375 8 24 C4.10259561 22.06089732 1.06861929 19.42992595 -2.125 16.5 C-2.97320313 15.7265625 -3.82140625 14.953125 -4.6953125 14.15625 C-10.7972146 8.44735176 -10.7972146 8.44735176 -11 5 C-8.19151659 -0.75070413 -6.19011578 -1.69421415 0 0 Z " fill="#193E54" transform="translate(1015,277)"/>
<path d="M0 0 C0.85078125 0.15339844 1.7015625 0.30679688 2.578125 0.46484375 C7.95708571 1.56241985 11.182728 2.80423058 14.625 7.375 C14.53998029 10.94582798 13.62913395 12.36879907 11.625 15.375 C7.07091941 17.17328106 2.6700268 15.62047466 -1.9375 14.625 C-2.80052734 14.45484375 -3.66355469 14.2846875 -4.55273438 14.109375 C-5.79700195 13.84640625 -5.79700195 13.84640625 -7.06640625 13.578125 C-7.82123291 13.41989258 -8.57605957 13.26166016 -9.35375977 13.09863281 C-11.72107039 12.25110187 -12.8123379 11.33033103 -14.375 9.375 C-15.39270618 5.95841495 -15.84625382 4.24681957 -14.125 1.0625 C-9.87749622 -3.03330721 -5.1838742 -1.0663525 0 0 Z " fill="#193E54" transform="translate(884.375,216.625)"/>
<path d="M0 0 C0.84433594 0.20238281 1.68867187 0.40476562 2.55859375 0.61328125 C3.72261719 0.88785156 4.88664063 1.16242187 6.0859375 1.4453125 C15.93741161 3.99713913 15.93741161 3.99713913 18.484375 6.5234375 C20.16002541 9.7833392 19.45439221 12.15805863 18.55859375 15.61328125 C14.40507683 18.38229253 11.22930921 17.53548217 6.55859375 16.61328125 C-5.43888422 13.68334161 -5.43888422 13.68334161 -8.296875 10.6328125 C-9.7811675 8.01377078 -9.96047786 6.57940472 -9.44140625 3.61328125 C-6.87647593 -0.44785842 -4.62631909 -0.86579507 0 0 Z " fill="#193E54" transform="translate(675.44140625,793.38671875)"/>
<path d="M0 0 C0.85013672 0.144375 1.70027344 0.28875 2.57617188 0.4375 C6.51572335 1.1419845 9.95833382 1.8081028 13.4375 3.875 C14.83685013 6.67370027 14.69015405 8.77998792 14.4375 11.875 C12.51394793 14.6641505 10.68772326 15.27479997 7.4375 15.875 C4.40301861 15.70528952 1.43160143 15.13677133 -1.5625 14.625 C-2.36945312 14.50253906 -3.17640625 14.38007812 -4.0078125 14.25390625 C-11.72575096 12.96758317 -11.72575096 12.96758317 -14.5625 9.875 C-15.125 6.4375 -15.125 6.4375 -14.5625 2.875 C-10.14830947 -2.3490521 -6.07516196 -1.20300237 0 0 Z " fill="#193E54" transform="translate(731.5625,805.125)"/>
<path d="M0 0 C3.20539629 1.84829328 5.66659665 4.30358029 8.22949219 6.94433594 C8.761875 7.46125 9.29425781 7.97816406 9.84277344 8.51074219 C12.81723449 11.51547765 14.75878746 13.74789931 14.85449219 18.06933594 C13.29199219 20.88183594 13.29199219 20.88183594 10.85449219 23.06933594 C8.10449219 23.81933594 8.10449219 23.81933594 4.85449219 23.06933594 C1.9015946 21.01854556 -0.59100307 18.58945312 -3.14550781 16.06933594 C-4.15097656 15.15474609 -4.15097656 15.15474609 -5.17675781 14.22167969 C-7.83021199 11.74765991 -9.83155099 9.80190185 -11.27050781 6.44433594 C-11.10246883 3.25159524 -10.09393403 1.57445536 -8.14550781 -0.93066406 C-4.64036782 -2.09904406 -3.27351292 -1.51707779 0 0 Z " fill="#193E54" transform="translate(544.1455078125,716.9306640625)"/>
<path d="M0 0 C1.59313358 3.18626717 1.39792862 5.47705398 1 9 C-0.60720661 11.47290488 -2.63205538 13.34330953 -4.8125 15.3125 C-5.35970703 15.83650391 -5.90691406 16.36050781 -6.47070312 16.90039062 C-8.87437678 19.17586835 -11.24202313 21.16134875 -14 23 C-17.5625 22.875 -17.5625 22.875 -21 22 C-23.21827435 19.59686946 -23.00084334 17.95530315 -23.0625 14.6875 C-21.61373482 9.6594326 -18.8903475 7.34140276 -15 4 C-14.44183594 3.49984375 -13.88367188 2.9996875 -13.30859375 2.484375 C-8.40819315 -1.78965861 -6.04846985 -2.49828103 0 0 Z " fill="#193E54" transform="translate(1030,720)"/>
<path d="M0 0 C13.90993346 7.38236692 13.90993346 7.38236692 16.5 12.5625 C16.875 15.4375 16.875 15.4375 16.5 18.5625 C14.25 21 14.25 21 11.5 22.5625 C5.88698797 21.95342848 1.04099136 17.62914352 -3.5 14.5625 C-4.17675781 14.12421875 -4.85351562 13.6859375 -5.55078125 13.234375 C-7.1875 12.0625 -7.1875 12.0625 -9.5 9.5625 C-10.06374961 5.92944699 -10.33694966 3.75814238 -8.1875 0.6875 C-4.81376157 -1.56165895 -3.82313689 -1.57021694 0 0 Z " fill="#193E54" transform="translate(972.5,249.4375)"/>
<path d="M0 0 C2.37550346 0.8598615 4.72909621 1.78169982 7.0625 2.75 C8.27035156 3.23984375 9.47820313 3.7296875 10.72265625 4.234375 C14.20080905 6.10818318 15.90579825 7.67636638 18 11 C18.0625 14.125 18.0625 14.125 17 17 C14.9296875 18.83984375 14.9296875 18.83984375 12 20 C9.09147227 19.32324846 6.77364852 18.58287844 4.0625 17.4375 C3.37220703 17.17130859 2.68191406 16.90511719 1.97070312 16.63085938 C-2.37772354 14.89561044 -6.30033012 12.91989331 -10 10 C-10.6875 6.5 -10.6875 6.5 -10 3 C-6.57862884 -0.91013846 -4.84595571 -1.34153576 0 0 Z " fill="#193E54" transform="translate(628,775)"/>
<path d="M0 0 C6.17068789 1.99054448 10.45607884 9.55579123 13.66796875 14.93359375 C14.95146736 17.70113762 15.02893704 19.83507873 14.54296875 22.8203125 C12.54296875 25.8203125 12.54296875 25.8203125 9.23046875 26.8203125 C5.54296875 26.8203125 5.54296875 26.8203125 3.08203125 24.69140625 C0.57600305 21.85766667 -1.63555259 19.00541404 -3.76953125 15.8828125 C-4.46691406 14.88378906 -5.16429687 13.88476562 -5.8828125 12.85546875 C-7.63358812 9.47990385 -7.95306144 7.56692355 -7.45703125 3.8203125 C-5.02291739 1.10801419 -3.72866443 -0.27268452 0 0 Z " fill="#193E54" transform="translate(509.45703125,676.1796875)"/>
<path d="M0 0 C5.54620619 2.10373338 7.10218911 6.22234988 9.625 11.375 C9.96789063 12.03757812 10.31078125 12.70015625 10.6640625 13.3828125 C12.46049427 17.12677779 13.3564607 20.26053354 12.625 24.375 C10.4375 26.8125 10.4375 26.8125 7.625 28.375 C5.0625 28.4375 5.0625 28.4375 2.625 27.375 C-0.3847733 23.98523528 -2.57071302 20.46826006 -4.625 16.4375 C-5.40617187 14.93896484 -5.40617187 14.93896484 -6.203125 13.41015625 C-7.47202071 10.12371637 -7.71426086 7.86594509 -7.375 4.375 C-5.19297715 0.97104435 -4.03057795 0.44784199 0 0 Z " fill="#193E54" transform="translate(1078.375,347.625)"/>
<path d="M0 0 C2.7062491 1.62838544 3.87174231 3.09369209 4.82421875 6.09765625 C3.92816107 9.95070427 3.17267976 10.86534891 -0.17578125 13.09765625 C-5.67293641 12.7651123 -10.4639515 11.11338646 -15.55078125 9.16015625 C-16.27394531 8.89525391 -16.99710938 8.63035156 -17.7421875 8.35742188 C-23.04901903 6.35118069 -23.04901903 6.35118069 -24.17578125 4.09765625 C-24.63271688 -1.2713374 -24.63271688 -1.2713374 -22.86328125 -3.71484375 C-16.42022916 -8.24884337 -6.42802353 -3.03513499 0 0 Z " fill="#193F54" transform="translate(941.17578125,234.90234375)"/>
<path d="M0 0 C2.33043558 3.49565336 2.58763244 4.8865729 2 9 C-1.45520018 12.22654723 -5.18442373 14.29366639 -9.4375 16.3125 C-11.07525391 17.11107422 -11.07525391 17.11107422 -12.74609375 17.92578125 C-16.38891566 19.12839352 -18.34934397 19.08888444 -22 18 C-24.19433381 15.45174138 -24.93646636 13.84711523 -25.1875 10.5 C-22.33914751 4.50346844 -14.22925653 1.89961748 -8.3359375 -0.33984375 C-5.20400665 -1.22495464 -3.04518261 -1.14194348 0 0 Z " fill="#193E54" transform="translate(945,777)"/>
<path d="M0 0 C0.495 1.485 0.495 1.485 1 3 C-22.25091615 12.27915696 -51.68924301 14.01868256 -76 8 C-76.33 7.34 -76.66 6.68 -77 6 C-76.44054688 6.06058594 -75.88109375 6.12117187 -75.3046875 6.18359375 C-72.53788572 6.47272898 -69.76968755 6.73990244 -67 7 C-65.47632813 7.14308594 -65.47632813 7.14308594 -63.921875 7.2890625 C-56.81396671 7.87858096 -49.75535076 8.10332121 -42.625 8.125 C-41.79307129 8.12959229 -40.96114258 8.13418457 -40.10400391 8.13891602 C-31.30096995 8.31937946 -31.30096995 8.31937946 -23 6 C-21.67091011 5.81954167 -20.33617957 5.67941571 -19 5.5625 C-15.46862534 5.19560393 -11.99238556 4.7047778 -8.5 4.0625 C-7.24703125 3.83240234 -7.24703125 3.83240234 -5.96875 3.59765625 C-5.3190625 3.40042969 -4.669375 3.20320312 -4 3 C-3.67 2.34 -3.34 1.68 -3 1 C-2.01 1.33 -1.02 1.66 0 2 C0 1.34 0 0.68 0 0 Z " fill="#123246" transform="translate(1236,730)"/>
<path d="M0 0 C0.66 0.33 1.32 0.66 2 1 C1.26656372 2.36620483 1.26656372 2.36620483 0.51831055 3.76000977 C-1.70853062 8.98935915 -1.37323701 14.2440626 -1.29296875 19.83984375 C-1.28872391 20.96193741 -1.28447906 22.08403107 -1.28010559 23.24012756 C-1.26338097 26.80616767 -1.22573922 30.37163215 -1.1875 33.9375 C-1.17244517 36.36262202 -1.15875817 38.78775294 -1.14648438 41.21289062 C-1.11349778 47.1421218 -1.06336008 53.07101976 -1 59 C-1.99 59.495 -1.99 59.495 -3 60 C-3.70262434 48.29377666 -4.12258275 36.60311232 -4.1875 24.875 C-4.20039062 23.76278076 -4.21328125 22.65056152 -4.2265625 21.50463867 C-4.23482113 14.60713647 -4.02926249 7.64712027 -2 1 C-1.34 0.67 -0.68 0.34 0 0 Z " fill="#133245" transform="translate(1184,472)"/>
<path d="M0 0 C3.53467013 2.70237861 4.34721783 6.4636677 5.5 10.5625 C5.71430664 11.314104 5.92861328 12.06570801 6.14941406 12.84008789 C9.31801026 24.36627475 11.03741741 36.0187998 11.8125 47.9375 C11.86567383 48.70118896 11.91884766 49.46487793 11.97363281 50.25170898 C12.16815582 54.11106297 12.20259644 55.69610534 10 59 C10 57.68 10 56.36 10 55 C9.01 54.67 8.02 54.34 7 54 C7.99 54 8.98 54 10 54 C9.38193172 46.63768997 9.38193172 46.63768997 8.4375 39.3125 C7.93186357 35.48410985 7.93230329 31.85871247 8 28 C7.34 27.67 6.68 27.34 6 27 C5.82625306 24.9845355 5.6534473 22.96898703 5.484375 20.953125 C4.75514655 16.50718379 3.2431596 12.37442155 1.72729492 8.14208984 C0.71077121 5.27771234 0 3.06709403 0 0 Z " fill="#123144" transform="translate(1326,539)"/>
<path d="M0 0 C0.60328125 0.42152344 1.2065625 0.84304688 1.828125 1.27734375 C3.02695313 2.09912109 3.02695313 2.09912109 4.25 2.9375 C5.03890625 3.48277344 5.8278125 4.02804687 6.640625 4.58984375 C8.86468755 6.07899517 8.86468755 6.07899517 11.109375 6.50390625 C13.48521837 7.1273197 14.31497043 8.24949001 16 10 C18.0010248 11.12551673 18.0010248 11.12551673 20.125 12.0625 C23.88967972 13.77935943 23.88967972 13.77935943 25 16 C26.299375 16.2165625 26.299375 16.2165625 27.625 16.4375 C32.18343905 17.19723984 36.10047716 18.93850194 40.125 21.1875 C42.49932558 22.21637442 44.44093582 22.14217023 47 22 C47 22.66 47 23.32 47 24 C47.66 24.33 48.32 24.66 49 25 C42.70104203 24.49063096 37.64990363 22.9567891 31.875 20.4375 C31.04895264 20.08252441 30.22290527 19.72754883 29.37182617 19.36181641 C19.27652694 14.93078169 7.96612918 9.76821292 0 2 C0 1.34 0 0.68 0 0 Z " fill="#123346" transform="translate(1101,709)"/>
<path d="M0 0 C0.33 0.99 0.66 1.98 1 3 C-0.32 3.99 -1.64 4.98 -3 6 C-2.67 6.66 -2.34 7.32 -2 8 C-2.763125 8.2475 -3.52625 8.495 -4.3125 8.75 C-7.2364045 10.10995558 -8.30004356 11.31585826 -10 14 C-9.34 14.66 -8.68 15.32 -8 16 C-11 17 -11 17 -13 17 C-15.99063302 19.16820894 -17.93733629 20.90600444 -20 24 C-25.18309859 29 -25.18309859 29 -28 29 C-28 29.99 -28 30.98 -28 32 C-28.99 31.67 -29.98 31.34 -31 31 C-20.66666667 20.66666667 -10.33333333 10.33333333 0 0 Z " fill="#102F41" transform="translate(1161,635)"/>
<path d="M0 0 C0.33 0 0.66 0 1 0 C1.97798308 14.88707584 -1.10063428 30.31849227 -7 44 C-8.29040166 40.05032464 -7.28857282 37.80716311 -5.8984375 33.94921875 C-3.08106482 24.7008867 -1.83642239 14.72211588 -1.2109375 5.1015625 C-1 3 -1 3 0 0 Z " fill="#123144" transform="translate(1336,599)"/>
<path d="M0 0 C0.99 0 1.98 0 3 0 C2.39857135 4.99875947 0.16434323 8.94820069 -2.1875 13.3125 C-2.59025146 14.06781006 -2.99300293 14.82312012 -3.40795898 15.60131836 C-6.21179881 20.77028678 -9.23668396 25.4647217 -13 30 C-13.33 28.68 -13.66 27.36 -14 26 C-13.34 25.67 -12.68 25.34 -12 25 C-11.67 24.01 -11.34 23.02 -11 22 C-10.34 22 -9.68 22 -9 22 C-8.690625 21.21625 -8.38125 20.4325 -8.0625 19.625 C-7 17 -7 17 -6 15 C-6.66 15 -7.32 15 -8 15 C-7 13 -7 13 -4 12 C-2.75235969 9.74737209 -2.75235969 9.74737209 -1.8125 7.0625 C-1.29623047 5.71865234 -1.29623047 5.71865234 -0.76953125 4.34765625 C0.10382682 2.0950092 0.10382682 2.0950092 0 0 Z " fill="#123246" transform="translate(1323,649)"/>
<path d="M0 0 C6.48508252 1.16516849 12.08610851 3.12128033 18 6 C18.76183594 6.35578125 19.52367187 6.7115625 20.30859375 7.078125 C25.86665691 9.73331382 25.86665691 9.73331382 27 12 C24.6875 12.1875 24.6875 12.1875 22 12 C20.97895449 11.02149805 19.9793879 10.02019573 19 9 C16.39388923 8.27802838 16.39388923 8.27802838 14 8 C14 7.34 14 6.68 14 6 C11.03 5.505 11.03 5.505 8 5 C8 4.34 8 3.68 8 3 C7.05125 3.061875 6.1025 3.12375 5.125 3.1875 C4.09375 3.125625 3.0625 3.06375 2 3 C1.34 2.01 0.68 1.02 0 0 Z " fill="#113144" transform="translate(1235,454)"/>
<path d="M0 0 C3.41152653 1.39307766 4.76334064 2.73402646 6.5078125 5.95703125 C6.93707031 6.74013672 7.36632813 7.52324219 7.80859375 8.33007812 C8.24300781 9.14927734 8.67742187 9.96847656 9.125 10.8125 C9.56714844 11.62009766 10.00929688 12.42769531 10.46484375 13.25976562 C14.97589673 21.5800008 14.97589673 21.5800008 16 25 C15.67 25.99 15.34 26.98 15 28 C13.00518382 24.07915441 11.04588139 20.1950957 9.375 16.125 C8.21250569 12.97087485 8.21250569 12.97087485 6 11 C5.835 10.319375 5.67 9.63875 5.5 8.9375 C5.335 8.298125 5.17 7.65875 5 7 C4.34 6.67 3.68 6.34 3 6 C1.95191959 4.02477154 0.9479589 2.02518491 0 0 Z " fill="#123246" transform="translate(1310,510)"/>
<path d="M0 0 C1 3 1 3 -0.5 6.0625 C-0.995 7.031875 -1.49 8.00125 -2 9 C-1.67 9.66 -1.34 10.32 -1 11 C-1.99 11.495 -1.99 11.495 -3 12 C-3.96169216 14.68399539 -4.82270888 17.33144506 -5.625 20.0625 C-5.85445312 20.82111328 -6.08390625 21.57972656 -6.3203125 22.36132812 C-6.88710193 24.23881812 -7.44444077 26.11915633 -8 28 C-8.33 28 -8.66 28 -9 28 C-8.77533572 21.70940022 -7.26992414 16.46407782 -5.0625 10.625 C-4.66490479 9.5721582 -4.66490479 9.5721582 -4.25927734 8.49804688 C-3.05910827 5.41381349 -1.84276475 2.76414712 0 0 Z " fill="#113144" transform="translate(1057,530)"/>
<path d="M0 0 C3.42411377 1.38536004 6.02197479 3.04884387 8.984375 5.24609375 C9.92796875 5.93574219 10.8715625 6.62539063 11.84375 7.3359375 C14.234375 9.30859375 14.234375 9.30859375 16.234375 12.30859375 C15.65945313 12.01855469 15.08453125 11.72851562 14.4921875 11.4296875 C13.05776447 10.71743939 11.61568273 10.02025981 10.1640625 9.34375 C9.48601562 9.02277344 8.80796875 8.70179688 8.109375 8.37109375 C7.42617187 8.05269531 6.74296875 7.73429687 6.0390625 7.40625 C4.234375 6.30859375 4.234375 6.30859375 2.234375 3.30859375 C1.244375 3.80359375 1.244375 3.80359375 0.234375 4.30859375 C0.234375 3.31859375 0.234375 2.32859375 0.234375 1.30859375 C-0.755625 1.63859375 -1.745625 1.96859375 -2.765625 2.30859375 C-3.425625 1.64859375 -4.085625 0.98859375 -4.765625 0.30859375 C-2.765625 -0.69140625 -2.765625 -0.69140625 0 0 Z " fill="#113145" transform="translate(1266.765625,467.69140625)"/>
<path d="M0 0 C0.33 0.66 0.66 1.32 1 2 C0.34 2 -0.32 2 -1 2 C-0.88637738 3.4800841 -0.75877092 4.95910074 -0.625 6.4375 C-0.55539062 7.26121094 -0.48578125 8.08492187 -0.4140625 8.93359375 C-0.27742188 9.61550781 -0.14078125 10.29742188 0 11 C0.66 11.33 1.32 11.66 2 12 C2.79928632 16.43240597 3.29696563 19.66052854 2 24 C-2.59225513 8.25512528 -2.59225513 8.25512528 -2 1 C-1.34 0.67 -0.68 0.34 0 0 Z " fill="#113144" transform="translate(1046,610)"/>
<path d="M0 0 C1 3 1 3 0.75 5.875 C0.71147578 9.19703829 0.71147578 9.19703829 3.3125 11.75 C5.97470537 14.06171683 5.97470537 14.06171683 9 16 C7.68 16.33 6.36 16.66 5 17 C5 16.34 5 15.68 5 15 C2.525 14.01 2.525 14.01 0 13 C0 12.01 0 11.02 0 10 C-0.66 9.67 -1.32 9.34 -2 9 C-2.8125 7.25 -2.8125 7.25 -3 5 C-1.5625 2.25 -1.5625 2.25 0 0 Z " fill="#123246" transform="translate(1121,649)"/>
<path d="M0 0 C0.33 0.66 0.66 1.32 1 2 C-0.66666667 3.66666667 -2.33333333 5.33333333 -4 7 C-4.886875 7.928125 -5.77375 8.85625 -6.6875 9.8125 C-9 12 -9 12 -11 12 C-11.66 13.32 -12.32 14.64 -13 16 C-13.99 16 -14.98 16 -16 16 C-14.71937515 14.2925002 -13.38232443 12.62626404 -12 11 C-11.34 11 -10.68 11 -10 11 C-10 10.34 -10 9.68 -10 9 C-8.3203125 7.34375 -8.3203125 7.34375 -6.125 5.5 C-4.00964496 3.71066742 -1.95980876 1.95980876 0 0 Z " fill="#0F293A" transform="translate(1180,616)"/>
<path d="M0 0 C0.66 0.66 1.32 1.32 2 2 C1.78550923 6.01526713 -0.68108391 8.05091736 -3.4375 10.75 C-4.24058594 11.54921875 -5.04367187 12.3484375 -5.87109375 13.171875 C-8 15 -8 15 -10 15 C-10 14.34 -10 13.68 -10 13 C-9.34 13 -8.68 13 -8 13 C-8 12.34 -8 11.68 -8 11 C-7.34 11 -6.68 11 -6 11 C-5.67 10.01 -5.34 9.02 -5 8 C-4.34 7.360625 -3.68 6.72125 -3 6.0625 C-0.94497246 3.94325285 -0.40893155 2.86252086 0 0 Z " fill="#123144" transform="translate(1168,597)"/>
<path d="M0 0 C0 3 0 3 -1.75 5.04296875 C-2.4925 5.75066406 -3.235 6.45835937 -4 7.1875 C-4.7425 7.90292969 -5.485 8.61835937 -6.25 9.35546875 C-7.11625 10.16951172 -7.11625 10.16951172 -8 11 C-8.66 10.67 -9.32 10.34 -10 10 C-10 9.01 -10 8.02 -10 7 C-9.34 7 -8.68 7 -8 7 C-7.67 6.34 -7.34 5.68 -7 5 C-6.34 5 -5.68 5 -5 5 C-3.29319053 3.37446717 -1.62339805 1.70884005 0 0 Z " fill="#103043" transform="translate(1298,691)"/>
<path d="M0 0 C4.29 0.33 8.58 0.66 13 1 C13 1.33 13 1.66 13 2 C12.40832031 2.04898438 11.81664062 2.09796875 11.20703125 2.1484375 C6.80895528 2.56456867 3.03071103 3.04965595 -1 5 C-0.67 3.35 -0.34 1.7 0 0 Z " fill="#123246" transform="translate(1183,614)"/>
<path d="M0 0 C4.54805635 -0.17835515 7.8794254 0.00214565 12 2 C11.67 2.99 11.34 3.98 11 5 C9.948125 4.5359375 9.948125 4.5359375 8.875 4.0625 C5.91063343 2.96697322 3.12301892 2.43577008 0 2 C0 1.34 0 0.68 0 0 Z " fill="#113144" transform="translate(1187,469)"/>
</svg>
