<?xml version="1.0" encoding="UTF-8"?>
<svg version="1.1" xmlns="http://www.w3.org/2000/svg" width="1448" height="878">
<path d="M0 0 C477.84 0 955.68 0 1448 0 C1448 289.74 1448 579.48 1448 878 C970.16 878 492.32 878 0 878 C0 588.26 0 298.52 0 0 Z " fill="#FDFCFE" transform="translate(0,0)"/>
<path d="M0 0 C15.23666006 13.18618733 25.87570099 30.09546138 31.2734375 49.55078125 C31.76595791 51.92489308 31.76595791 51.92489308 33 53 C38.8563539 80.62730843 36.06699327 110.85597783 20.57421875 134.88671875 C7.84560668 153.63838052 -8.70810643 168.79294284 -30 177 C-30.81210938 177.33515625 -31.62421875 177.6703125 -32.4609375 178.015625 C-50.72954434 185.19449103 -72.8836394 186.94241715 -92 182 C-93.00160156 181.75507813 -94.00320312 181.51015625 -95.03515625 181.2578125 C-120.27025768 174.32812487 -143.96752918 157.3515923 -157.34960938 134.71728516 C-162.05687491 126.39657919 -166.26578341 118.18357847 -169 109 C-169.46986328 107.42798828 -169.46986328 107.42798828 -169.94921875 105.82421875 C-172.00481217 97.09066574 -172.2874577 88.63575619 -172.3125 79.6875 C-172.32059692 77.89928833 -172.32059692 77.89928833 -172.32885742 76.07495117 C-172.27328202 69.14542319 -171.70825362 62.71844099 -170 56 C-169.8337915 55.33540771 -169.66758301 54.67081543 -169.49633789 53.98608398 C-162.18010042 26.4111318 -145.27863365 3.58110956 -120.87109375 -11.375 C-81.76211576 -33.51014945 -34.3487503 -28.47612336 0 0 Z " fill="#FEFEFE" transform="translate(268,293)"/>
<path d="M0 0 C1.19440201 -0.00511093 2.38880402 -0.01022186 3.61940002 -0.01548767 C6.8799314 -0.02697044 10.14030435 -0.0294628 13.40085053 -0.02692437 C16.1316443 -0.02585032 18.86241494 -0.03074925 21.59320372 -0.03552979 C28.04164579 -0.04660533 34.4900296 -0.04707387 40.93847656 -0.04101562 C47.56920517 -0.03498141 54.19972128 -0.04727716 60.83041364 -0.06858569 C66.54193013 -0.08625884 72.25337934 -0.09219396 77.96492213 -0.08894795 C81.36786125 -0.0871435 84.77064888 -0.0896864 88.173563 -0.10366249 C91.97394625 -0.11604875 95.77384284 -0.10922112 99.57421875 -0.09765625 C100.68676025 -0.10529999 101.79930176 -0.11294373 102.94555664 -0.12081909 C117.23279048 -0.02510132 129.51136084 5.25984474 139.91870117 15.09106445 C150.48147672 26.27400296 154.72896661 38.32327703 154.50268555 53.53125 C153.90499785 68.57803769 148.13193031 81.11030584 137.15307617 91.4934082 C124.73831941 101.67529504 111.14637068 104.58789049 95.45800781 104.54931641 C94.36376999 104.55442734 93.26953217 104.55953827 92.14213562 104.56480408 C88.5584858 104.57859834 84.97503048 104.57775115 81.39135742 104.57543945 C78.8799177 104.57933158 76.36847863 104.58366731 73.85704041 104.58842468 C68.60617442 104.59586476 63.35535799 104.59575142 58.10449219 104.59033203 C52.06447064 104.58429335 46.0246821 104.59661227 39.98470026 104.6179021 C34.13649729 104.63774553 28.28838457 104.64067983 22.44015312 104.63716698 C19.96878957 104.63767793 17.49742212 104.6428729 15.02607918 104.6529789 C11.56180322 104.66540968 8.09805747 104.65851189 4.63378906 104.64697266 C3.62822968 104.65461639 2.62267029 104.66226013 1.5866394 104.6701355 C-13.7434271 104.55810336 -27.63319499 99.40829767 -38.76489258 88.7590332 C-50.17186715 76.18566089 -53.91314689 62.00372005 -53.19799805 45.43432617 C-52.26678505 34.21156033 -46.2639966 21.99698977 -38.01879883 14.2746582 C-25.76196697 4.37639651 -15.71135746 -0.03479625 0 0 Z " fill="#61CDA7" transform="translate(149.018798828125,501.725341796875)"/>
<path d="M0 0 C14.52 0 29.04 0 44 0 C44 56.43 44 112.86 44 171 C30.14 171 16.28 171 2 171 C1.67 167.37 1.34 163.74 1 160 C0.34 160 -0.32 160 -1 160 C-1.721875 160.721875 -2.44375 161.44375 -3.1875 162.1875 C-10.93270901 169.93270901 -18.95114501 173.32725549 -29.95385742 173.46850586 C-30.87658447 173.45827393 -31.79931152 173.44804199 -32.75 173.4375 C-33.71719971 173.42920166 -34.68439941 173.42090332 -35.6809082 173.41235352 C-49.93753671 173.07702978 -62.089813 168.35664005 -72.1875 158.0625 C-75.47945795 154.08641087 -77.94714165 149.81553957 -80.3125 145.25 C-80.63822998 144.63133057 -80.96395996 144.01266113 -81.29956055 143.37524414 C-86.42789504 132.87449578 -87.5381982 121.72783285 -87.4375 110.1875 C-87.42992676 108.96353516 -87.42235352 107.73957031 -87.41455078 106.47851562 C-87.09660462 88.96130678 -82.53816453 71.93699283 -70 59 C-56.2365551 47.15146918 -41.43017851 45.01483186 -24 46 C-14.6227192 47.34123531 -7.58002809 52.41997191 -1 59 C-0.67 39.53 -0.34 20.06 0 0 Z " fill="#020202" transform="translate(509,352)"/>
<path d="M0 0 C15.18 0 30.36 0 46 0 C46.0093457 3.41150391 46.01869141 6.82300781 46.02832031 10.33789062 C46.06210844 21.61762295 46.11746757 32.89718081 46.18390274 44.17676544 C46.22365166 51.01465734 46.25606507 57.85243484 46.27099609 64.69042969 C46.28542996 71.29118465 46.32058861 77.89162114 46.36830902 84.49223328 C46.38313032 87.00873225 46.39104144 89.52528186 46.39188385 92.04182434 C46.39425285 95.57058385 46.42132981 99.09836289 46.45410156 102.62695312 C46.4490712 103.66417511 46.44404083 104.70139709 46.43885803 105.77005005 C46.54342122 113.06177157 47.85142238 118.35131274 52.74609375 124.0234375 C53.30425781 124.46945312 53.86242188 124.91546875 54.4375 125.375 C54.99308594 125.83648437 55.54867188 126.29796875 56.12109375 126.7734375 C63.84035095 131.81261996 74.1319321 130.93698943 83 130 C89.01379834 128.32527135 93.80503211 125.49534477 97 120 C99.96763243 113.44620089 100.44244143 107.95634428 100.43237305 100.81054688 C100.4425647 99.71697876 100.45275635 98.62341064 100.46325684 97.4967041 C100.49330423 93.90400005 100.50264042 90.31156302 100.51171875 86.71875 C100.5285715 84.21910725 100.54672254 81.71947295 100.56611633 79.21984863 C100.60871585 73.32691717 100.63828055 67.43403456 100.66143972 61.54099703 C100.69122182 54.16786527 100.74140444 46.79489538 100.79101562 39.421875 C100.87698191 26.28129821 100.94281418 13.14073359 101 0 C116.18 0 131.36 0 147 0 C147.06799049 14.47430406 147.12293972 28.94850068 147.15543652 43.42292881 C147.17083788 50.145211 147.19179677 56.86738616 147.22631836 63.58959961 C147.2591037 70.08650271 147.27689328 76.58329509 147.28463173 83.08027458 C147.29014097 85.54917072 147.3008984 88.01806134 147.31719017 90.48690987 C147.47016997 114.64765357 145.70009795 135.1973947 128.5 153.6875 C127.2625 154.8321875 127.2625 154.8321875 126 156 C125.55914063 156.45761719 125.11828125 156.91523438 124.6640625 157.38671875 C111.38691147 170.22579119 90.74318467 173.77631023 73.0625 173.5 C72.36411011 173.49446106 71.66572021 173.48892212 70.94616699 173.48321533 C50.31490955 173.29149695 32.91156156 168.37357982 17.65625 153.75390625 C-0.55102679 134.78799293 -0.30413238 110.8489424 -0.1953125 86.23046875 C-0.19157671 83.73798232 -0.18873241 81.24549441 -0.18673706 78.75300598 C-0.17914518 72.2314337 -0.15953536 65.70995223 -0.1373291 59.18841553 C-0.11567415 52.51820643 -0.10771485 45.84796885 -0.09765625 39.17773438 C-0.07628487 26.11844352 -0.04113945 13.05924356 0 0 Z " fill="#63CDA8" transform="translate(1050,352)"/>
<path d="M0 0 C16.17 0 32.34 0 49 0 C65.79065252 40.75679757 65.79065252 40.75679757 72.81176758 58.93261719 C73.22322021 59.99383789 73.63467285 61.05505859 74.05859375 62.1484375 C74.41236084 63.06802246 74.76612793 63.98760742 75.13061523 64.93505859 C75.82741543 66.95318922 75.82741543 66.95318922 77 68 C77.1952124 67.45781326 77.3904248 66.91562653 77.59155273 66.35700989 C79.66663682 60.59483861 81.74446576 54.83366203 83.82373047 49.07299805 C84.59425891 46.93717253 85.36413999 44.80111334 86.13330078 42.66479492 C87.25373121 39.55322048 88.37667061 36.44256014 89.5 33.33203125 C89.83056396 32.41235062 90.16112793 31.49266998 90.50170898 30.54512024 C94.20347287 20.30991207 98.12320871 10.17657714 102 0 C118.17 0 134.34 0 151 0 C144.12183544 18.34177215 144.12183544 18.34177215 141.58203125 24.2578125 C141.28733444 24.95284882 140.99263763 25.64788513 140.68901062 26.36398315 C140.05962782 27.8480375 139.42890127 29.33152264 138.796875 30.81445312 C137.04010273 34.93798803 135.29542931 39.06663633 133.55078125 43.1953125 C133.18248199 44.06657776 132.81418274 44.93784302 132.4347229 45.83551025 C128.47044639 55.22886864 124.58444713 64.65422893 120.70214844 74.08169556 C117.52716111 81.78921264 114.34296823 89.49293654 111.15863037 97.19659424 C110.39110666 99.05368383 109.62389072 100.91090065 108.85699463 102.76824951 C106.68820189 108.01965941 104.51164794 113.26771764 102.32324219 118.51098633 C101.66417804 120.09321786 101.00764181 121.67650545 100.35400391 123.26098633 C84.36369051 162.00027532 84.36369051 162.00027532 65.3125 170.8125 C51.54192873 175.74911989 36.09686164 173.84540266 23 168 C20.14932513 166.47799466 17.63518125 164.88227232 15 163 C15.64333688 158.62022066 17.26941574 154.90819683 19.16015625 150.94921875 C19.46948593 150.29041214 19.77881561 149.63160553 20.09751892 148.95283508 C21.08070506 146.86192187 22.07146883 144.77470453 23.0625 142.6875 C23.73292641 141.26521167 24.40285376 139.84268799 25.07226562 138.41992188 C26.70907852 134.94386321 28.3526941 131.47109754 30 128 C34.75 129.875 34.75 129.875 37 131 C41.9509132 131.54317573 45.89488185 131.52241949 50.4375 129.375 C53.3109485 126.71180383 54.71639374 124.69980627 56 121 C55.54521914 117.27439839 54.33874895 114.27809714 52.69921875 110.921875 C52.22291016 109.93896484 51.74660156 108.95605469 51.25585938 107.94335938 C50.73830078 106.88955078 50.22074219 105.83574219 49.6875 104.75 C48.58708908 102.4844481 47.48683291 100.21882102 46.38671875 97.953125 C45.82259277 96.79619141 45.2584668 95.63925781 44.67724609 94.44726562 C42.0960488 89.14209739 39.54871927 83.82082554 37 78.5 C35.99757056 76.41137446 34.99496594 74.322833 33.9921875 72.234375 C32.01734044 68.12021736 30.04344648 64.00560448 28.0703125 59.890625 C27.3424353 58.37311646 27.3424353 58.37311646 26.59985352 56.82495117 C25.61825242 54.77839169 24.63696878 52.73167991 23.65600586 50.68481445 C20.88898814 44.91639316 18.10657525 39.15578571 15.30859375 33.40234375 C14.3664158 31.46179875 13.42447854 29.52113709 12.48260498 27.58044434 C11.59321327 25.75068682 10.70023459 23.92267416 9.80712891 22.09472656 C9.25331543 20.95358398 8.69950195 19.81244141 8.12890625 18.63671875 C7.64494385 17.64373779 7.16098145 16.65075684 6.66235352 15.62768555 C4.30329131 10.47960134 2.17802179 5.2272523 0 0 Z " fill="#010101" transform="translate(887,401)"/>
<path d="M0 0 C1.51787109 0.54527344 1.51787109 0.54527344 3.06640625 1.1015625 C18.38166807 7.04365407 27.33516907 15.81535487 34.5546875 30.47265625 C37.28888156 37.14556769 38.29832802 43.1218334 38.22705078 50.25195312 C38.22734283 51.03340698 38.22763489 51.81486084 38.22793579 52.61999512 C38.22655505 55.17386422 38.2110538 57.72743259 38.1953125 60.28125 C38.19157789 62.06343425 38.18873304 63.84562057 38.18673706 65.62780762 C38.17913585 70.29668949 38.15951785 74.96544505 38.1373291 79.63427734 C38.11317825 85.24779653 38.10407296 90.86135818 38.09242249 96.47491455 C38.07309116 104.98336397 38.03474418 113.49153672 38 122 C24.47 122 10.94 122 -3 122 C-3 118.37 -3 114.74 -3 111 C-3.66 111 -4.32 111 -5 111 C-5.24621094 111.59683594 -5.49242187 112.19367188 -5.74609375 112.80859375 C-7.21519126 115.37608191 -8.6048772 116.43708809 -11.0625 118.0625 C-11.77535156 118.54847656 -12.48820313 119.03445313 -13.22265625 119.53515625 C-20.92752588 123.59890605 -27.85724406 124.4544638 -36.5 124.3125 C-37.48097656 124.31572266 -38.46195313 124.31894531 -39.47265625 124.32226562 C-51.22004052 124.23623285 -61.22391793 121.82425783 -70.3359375 113.9921875 C-78.78997421 105.22387433 -80.64186791 95.88412425 -80.54125977 84.06787109 C-80.19763176 75.27693982 -77.84041484 67.80918298 -71.9375 61.125 C-58.16563273 48.93302227 -40.97063785 49.7088442 -23.75 49.875 C-21.92578618 49.88505345 -20.10156698 49.8941751 -18.27734375 49.90234375 C-13.85142721 49.92416172 -9.42577453 49.95856016 -5 50 C-5.27569336 48.56975801 -5.56316271 47.14178319 -5.85546875 45.71484375 C-6.09366333 44.52169556 -6.09366333 44.52169556 -6.33666992 43.30444336 C-7.41963163 39.5421778 -9.1686487 37.69966054 -12 35 C-17.49416756 32.30878911 -23.00512365 32.0848701 -29 33 C-32.9797777 35.03674651 -35.86755713 37.86755713 -39 41 C-44.72632718 40.79176992 -49.39622491 39.22713817 -54.7109375 37.18359375 C-59.52180395 35.45236746 -64.42270567 34.06599854 -69.33764648 32.66308594 C-74.81630254 31.09184873 -74.81630254 31.09184873 -77 30 C-74.67759134 19.93622915 -65.94094047 12.03238826 -58 6 C-41.25129249 -4.40278315 -18.63842248 -6.842299 0 0 Z " fill="#020202" transform="translate(649,401)"/>
<path d="M0 0 C4.77954765 4.30898741 9.14906394 9.18669063 12 15 C11.96875 16.97802734 11.96875 16.97802734 11 19 C8.2878418 20.46386719 8.2878418 20.46386719 4.69921875 21.796875 C3.75004326 22.15462006 3.75004326 22.15462006 2.7816925 22.51959229 C1.44194978 23.02101767 0.09932286 23.51479349 -1.24584961 24.00146484 C-3.30025557 24.7455651 -5.34464077 25.51307074 -7.38867188 26.28515625 C-17.38362287 30 -17.38362287 30 -22 30 C-23.34919532 28.34614767 -24.68133728 26.678298 -26 25 C-29.59908057 23.19119964 -32.61829063 22.70405665 -36.625 22.6875 C-38.03652344 22.66236328 -38.03652344 22.66236328 -39.4765625 22.63671875 C-42.03635259 22.80141291 -42.03635259 22.80141291 -43.83984375 24.36328125 C-45.24938491 26.00577559 -45.24938491 26.00577559 -44.9375 28.5 C-43.78243029 31.58018588 -42.75760793 32.25149986 -40 34 C-37.15020361 35.11680706 -37.15020361 35.11680706 -34 36 C-32.84113281 36.34546875 -31.68226563 36.6909375 -30.48828125 37.046875 C-27.39874736 37.89104776 -24.31822736 38.58188308 -21.1875 39.25 C-10.12551922 41.96775092 2.2660769 47.49424415 9 57 C14.85088951 66.90647296 17.94320191 76.37265174 15.3515625 87.87890625 C11.83436598 98.68601862 4.26773937 106.27850509 -5.75390625 111.41015625 C-22.17021603 118.75147862 -46.45767595 120.87103336 -63.625 114.875 C-69.44130055 112.49866424 -74.83304467 109.56861701 -80 106 C-80.9075 105.4225 -81.815 104.845 -82.75 104.25 C-86.26661443 100.73338557 -89.04736595 96.58061521 -91 92 C-90.98828125 90.03613281 -90.98828125 90.03613281 -90 88 C-87.71488704 86.77907598 -85.64113109 85.86444558 -83.2265625 84.984375 C-82.20724136 84.59333588 -82.20724136 84.59333588 -81.16732788 84.19439697 C-79.72924478 83.64600393 -78.28826794 83.10514882 -76.84472656 82.57128906 C-74.63486411 81.75364968 -72.43431288 80.9142457 -70.234375 80.0703125 C-68.83642754 79.54037216 -67.43800463 79.011684 -66.0390625 78.484375 C-65.04986313 78.1094693 -65.04986313 78.1094693 -64.04067993 77.72698975 C-61.2058875 76.68280921 -59.04878402 76 -56 76 C-54.97388051 77.65071396 -53.97691857 79.31970006 -53 81 C-48.69329573 84.88992644 -44.53422635 85.30934335 -38.90625 85.21484375 C-36.12736038 84.90164922 -34.77893225 84.14954313 -33 82 C-32.24978756 79.54367668 -32.24978756 79.54367668 -33 77 C-38.30182853 70.75141638 -48.48520574 69.31718823 -56.125 67.5625 C-67.47201446 64.77007066 -77.53997857 59.03832996 -83.92578125 48.9609375 C-89.05520345 39.09383896 -90.7598765 28.76965127 -87.875 17.875 C-84.65418107 8.39314988 -78.77295819 1.15094708 -70.015625 -3.62890625 C-48.34361915 -14.18510628 -20.37641124 -13.1674282 0 0 Z " fill="#020202" transform="translate(865,408)"/>
<path d="M0 0 C14.85 0 29.7 0 45 0 C45 56.43 45 112.86 45 171 C30.15 171 15.3 171 0 171 C0 114.57 0 58.14 0 0 Z " fill="#62CDA7" transform="translate(1223,352)"/>
<path d="M0 0 C0.88236328 -0.00128906 1.76472656 -0.00257813 2.67382812 -0.00390625 C4.05924805 0.00189453 4.05924805 0.00189453 5.47265625 0.0078125 C6.39240234 0.00394531 7.31214844 0.00007813 8.25976562 -0.00390625 C9.58524414 -0.00197266 9.58524414 -0.00197266 10.9375 0 C12.15167603 0.00169189 12.15167603 0.00169189 13.39038086 0.00341797 C15.53515625 0.1328125 15.53515625 0.1328125 18.53515625 1.1328125 C18.53515625 1.7928125 18.53515625 2.4528125 18.53515625 3.1328125 C19.33953125 3.1946875 20.14390625 3.2565625 20.97265625 3.3203125 C30.63461842 5.52391791 39.4418171 12.21766664 44.80859375 20.48046875 C52.12883536 32.47586356 54.5370087 43.47624464 51.8828125 57.60546875 C48.43255353 70.02936265 41.87134412 80.27284872 30.640625 86.8203125 C18.59615391 93.12282819 5.47411405 95.55283054 -7.9140625 92.29296875 C-19.48830803 87.79943813 -28.10171226 80.73226794 -34.46484375 70.1328125 C-34.98046875 69.35292969 -35.49609375 68.57304687 -36.02734375 67.76953125 C-39.71269699 61.00971213 -39.83009925 54.32845297 -39.83984375 46.8203125 C-39.86433594 45.83869141 -39.88882813 44.85707031 -39.9140625 43.84570312 C-39.95926091 32.4632367 -35.85999034 24.54852072 -28.46484375 16.1328125 C-27.92988281 15.50375 -27.39492187 14.8746875 -26.84375 14.2265625 C-22.25612503 9.20987908 -16.72974057 5.7519807 -10.46484375 3.1328125 C-9.14484375 3.1328125 -7.82484375 3.1328125 -6.46484375 3.1328125 C-6.46484375 2.4728125 -6.46484375 1.8128125 -6.46484375 1.1328125 C-4.09690372 -0.05115751 -2.63903066 0.00368249 0 0 Z " fill="#F19D38" transform="translate(193.46484375,325.8671875)"/>
<path d="M0 0 C14.52 0 29.04 0 44 0 C44 40.26 44 80.52 44 122 C29.48 122 14.96 122 0 122 C0 81.74 0 41.48 0 0 Z " fill="#030303" transform="translate(710,401)"/>
<path d="M0 0 C1.40185547 1.15628906 1.40185547 1.15628906 2.83203125 2.3359375 C16.26858195 13.94962748 26.30473041 28.79824864 32.3125 45.5 C32.54291992 46.13905273 32.77333984 46.77810547 33.01074219 47.43652344 C37.0338894 59.35236474 38.48709554 70.95775454 38.375 83.5 C38.38660156 84.79808594 38.39820313 86.09617187 38.41015625 87.43359375 C38.32395605 116.19572662 25.86473705 141.75519025 6 162 C-14.30641043 181.88677521 -42.37215975 192.28093781 -70.55371094 192.24658203 C-96.79911275 191.91862682 -121.56672088 182.85683317 -141 165 C-141.48952148 164.55285645 -141.97904297 164.10571289 -142.48339844 163.64501953 C-161.33405767 146.23475626 -175.21481945 121.28387402 -177.28930664 95.38867188 C-177.39971466 91.77459983 -177.41723103 88.17795914 -177.375 84.5625 C-177.36412354 83.28842285 -177.35324707 82.0143457 -177.34204102 80.70166016 C-176.83837857 51.00268164 -164.44401849 24.79267909 -143.43115234 4.01391602 C-104.16904858 -33.58738085 -41.37894592 -34.51131054 0 0 Z M-148.37255859 14.50390625 C-158.06522501 25.66278021 -164.52742224 38.97434353 -169 53 C-169.28617187 53.87398438 -169.57234375 54.74796875 -169.8671875 55.6484375 C-175.42969436 73.28953067 -175.26238649 95.3138054 -170 113 C-169.61714844 114.35544922 -169.61714844 114.35544922 -169.2265625 115.73828125 C-165.0744764 128.59451114 -157.97924796 140.96335025 -149 151 C-147.93652344 152.25876953 -147.93652344 152.25876953 -146.8515625 153.54296875 C-134.82801517 167.48606486 -119.42289648 177.23491459 -102 183 C-100.87207031 183.38027344 -99.74414062 183.76054687 -98.58203125 184.15234375 C-76.72814242 191.21902127 -52.15057223 189.72880759 -31 181 C-29.93652344 180.59007812 -29.93652344 180.59007812 -28.8515625 180.171875 C-15.29497402 174.62828863 -4.187192 166.36464397 6 156 C6.74894531 155.24976563 7.49789062 154.49953125 8.26953125 153.7265625 C28.70555161 132.04100243 34.71608214 105.71726492 34.3359375 76.7265625 C34.01711987 67.3060158 32.94613759 58.25764482 29.125 49.58984375 C27.83701442 46.62479361 26.77718872 43.60574252 25.6875 40.5625 C15.2039321 13.33079315 -8.18028637 -3.78872296 -33.86328125 -15.28125 C-73.80396522 -31.2817668 -120.22410884 -16.33822297 -148.37255859 14.50390625 Z " fill="#D3D2D4" transform="translate(269,289)"/>
<path d="M0 0 C6.59378403 3.90244361 11.59045792 8.39637375 14.0625 15.8125 C14.71279628 23.1236882 15.28367531 29.99475421 10.6875 36.06640625 C5.51235055 41.62720386 0.82043234 46.23375023 -6.98828125 47.18359375 C-14.37858577 47.33405504 -19.38228236 46.89260035 -24.9375 41.8125 C-30.8643403 35.8739001 -34.21860048 31.6636963 -34.3125 23.0625 C-34.17536821 15.7107125 -33.14958739 11.18552705 -28.06640625 5.84765625 C-20.32946637 -1.30425982 -10.2427332 -4.03293298 0 0 Z " fill="#030303" transform="translate(741.9375,342.1875)"/>
<path d="M0 0 C3.9197598 2.90418567 6.95340986 6.7142547 8.71875 11.2734375 C9.69651275 20.31774289 10.00497963 28.71051464 4.51171875 36.3828125 C1.81716318 39.22413035 -0.70146648 40.69007171 -4.28125 42.2734375 C-5.27125 42.7684375 -5.27125 42.7684375 -6.28125 43.2734375 C-12.48478939 43.80053562 -18.08326951 44.05378694 -23.28125 40.2734375 C-29.68810262 34.00232328 -32.55900865 29.15688392 -32.71875 20.0234375 C-32.71319025 12.40472406 -30.99916508 7.21005347 -25.75390625 1.65625 C-18.8010879 -4.60659401 -7.91748753 -4.57526943 0 0 Z " fill="#FAF9FB" transform="translate(500.28125,441.7265625)"/>
<path d="M0 0 C1.46469727 0.00966797 1.46469727 0.00966797 2.95898438 0.01953125 C3.96638672 0.03628906 4.97378906 0.05304688 6.01171875 0.0703125 C7.03845703 0.07933594 8.06519531 0.08835937 9.12304688 0.09765625 C11.64867774 0.12115049 14.17382685 0.15400119 16.69921875 0.1953125 C16.02510797 5.72698625 15.29007727 9.8755633 11.69921875 14.1953125 C5.48109657 18.88369164 -0.72285839 19.89742037 -8.30078125 19.1953125 C-11.32365009 17.80983095 -12.9694955 16.52659825 -15.30078125 14.1953125 C-15.96461577 10.0226384 -15.50081284 8.4925023 -13.11328125 4.9453125 C-9.02049177 0.9434739 -5.65480546 -0.06613808 0 0 Z " fill="#F5F4F6" transform="translate(628.30078125,475.8046875)"/>
<path d="M0 0 C0.99 0.66 1.98 1.32 3 2 C3.44824219 4.3190918 3.44824219 4.3190918 3.546875 7.19921875 C3.58683594 8.24400391 3.62679688 9.28878906 3.66796875 10.36523438 C3.69503906 11.46158203 3.72210938 12.55792969 3.75 13.6875 C3.79253906 14.76451172 3.83507812 15.84152344 3.87890625 16.95117188 C4.06068158 22.44145996 4.02021177 27.59751494 3 33 C0.525 33.495 0.525 33.495 -2 34 C-1.84660156 32.78441406 -1.69320313 31.56882812 -1.53515625 30.31640625 C-0.85589623 24.20306607 -0.65377014 18.08169911 -0.4375 11.9375 C-0.39431641 10.78572266 -0.35113281 9.63394531 -0.30664062 8.44726562 C-0.20149148 5.63160509 -0.09934607 2.81587024 0 0 Z " fill="#DEDDDF" transform="translate(303,362)"/>
<path d="M0 0 C12.48292845 3.34364155 24.26982655 10.59421127 34 19 C33.34 19.66 32.68 20.32 32 21 C30.87078125 20.1646875 30.87078125 20.1646875 29.71875 19.3125 C20.56325774 12.7347677 10.76273957 6.58757986 0 3 C0 2.01 0 1.02 0 0 Z " fill="#D9D8DA" transform="translate(235,272)"/>
<path d="M0 0 C2.33800677 0.68365823 3.69394615 1.52252656 5.015625 3.58447266 C6.06133296 5.64009797 7.04324276 7.71398755 8 9.8125 C10.27460013 14.72154912 12.5234397 18.80174303 16 23 C16 23.66 16 24.32 16 25 C8.18013987 21.98841273 4.37310397 11.08099673 0.84765625 3.99609375 C0 2 0 2 0 0 Z " fill="#D8D7D9" transform="translate(101,412)"/>
<path d="M0 0 C-1.36672838 4.10018515 -3.19170702 4.39513027 -7 6.3125 C-12.60394697 9.2164196 -17.84561645 12.36396199 -23 16 C-23 13 -23 13 -21.70703125 11.640625 C-5.84831461 0 -5.84831461 0 0 0 Z " fill="#D8D7D9" transform="translate(159,274)"/>
<path d="M0 0 C0.680625 0.680625 1.36125 1.36125 2.0625 2.0625 C2.743125 2.74119141 2.743125 2.74119141 3.4375 3.43359375 C4.54680866 4.54567568 5.65040381 5.66346995 6.75 6.78515625 C9.68793083 9.76740931 12.52245914 12.63527222 16 15 C15.67 15.99 15.34 16.98 15 18 C13.07573943 16.29963138 11.16085529 14.59032591 9.25 12.875 C8.71117188 12.400625 8.17234375 11.92625 7.6171875 11.4375 C4.07711474 8.24280019 1.4885227 5.07102985 -1 1 C-0.67 0.67 -0.34 0.34 0 0 Z " fill="#D7D6D8" transform="translate(118,438)"/>
<path d="M0 0 C0.99 0.33 1.98 0.66 3 1 C3 4.3 3 7.6 3 11 C1.35 11.33 -0.3 11.66 -2 12 C-1.85831863 10.56208484 -1.71148957 9.1246763 -1.5625 7.6875 C-1.48128906 6.88699219 -1.40007812 6.08648437 -1.31640625 5.26171875 C-1 3 -1 3 0 0 Z " fill="#D8D7D9" transform="translate(303,384)"/>
<path d="M0 0 C0.66 0.66 1.32 1.32 2 2 C0.58791833 3.60820412 -0.82986036 5.21140708 -2.25 6.8125 C-3.03890625 7.70582031 -3.8278125 8.59914063 -4.640625 9.51953125 C-6.65879445 11.64128225 -8.59916705 13.34254423 -11 15 C-10.42704553 11.46936161 -9.22229897 9.91099482 -6.625 7.5 C-4.14734271 5.13426973 -1.93547059 2.84628028 0 0 Z " fill="#D8D7D9" transform="translate(281,437)"/>
<path d="M0 0 C5.24972347 4.10037573 9.20962911 8.52964787 13 14 C9.26334338 13.44976705 7.81553383 12.05497256 5.4375 9.1875 C4.85871094 8.50042969 4.27992188 7.81335938 3.68359375 7.10546875 C2.0796375 5.09959307 0.52675618 3.06506535 -1 1 C-0.67 0.67 -0.34 0.34 0 0 Z " fill="#D7D6D8" transform="translate(271,294)"/>
<path d="M0 0 C0.66 0 1.32 0 2 0 C2.33 0.99 2.66 1.98 3 3 C3.66 3 4.32 3 5 3 C5 6.63 5 10.26 5 14 C4.01 14 3.02 14 2 14 C1.77213542 11.94921875 1.54427083 9.8984375 1.31640625 7.84765625 C1.18113386 5.98859771 1.18113386 5.98859771 0 5 C-0.04063832 3.33382885 -0.042721 1.66611905 0 0 Z " fill="#D9D8DA" transform="translate(299,340)"/>
<path d="M0 0 C0.33 0.66 0.66 1.32 1 2 C4.465 1.505 4.465 1.505 8 1 C2.96003362 4.35997759 -1.99709677 5.29282455 -8 5 C-5.35261084 3.5393715 -4.10551666 3 -1 3 C-0.67 2.01 -0.34 1.02 0 0 Z " fill="#CECDCF" transform="translate(224,474)"/>
<path d="M0 0 C0.66 0 1.32 0 2 0 C3.49524178 2.2727675 4.78399715 4.5679943 6 7 C5.67 7.66 5.34 8.32 5 9 C4.01 9 3.02 9 2 9 C1.34 6.03 0.68 3.06 0 0 Z " fill="#D7D6D8" transform="translate(294,327)"/>
<path d="M0 0 C0.66 0.33 1.32 0.66 2 1 C0.98823563 4.40320742 0.35156418 5.75725331 -2.625 7.8125 C-3.40875 8.204375 -4.1925 8.59625 -5 9 C-3.7508258 5.54074837 -2.32472205 2.85306797 0 0 Z " fill="#D9D8DA" transform="translate(288,427)"/>
<path d="M0 0 C2.12508244 3.18762365 2.5020163 5.26512223 3 9 C1 9 1 9 -0.625 7.5 C-1.07875 7.005 -1.5325 6.51 -2 6 C-1.34 4.02 -0.68 2.04 0 0 Z " fill="#D7D6D8" transform="translate(99,402)"/>
<path d="M0 0 C-1 3 -1 3 -2.84765625 3.94921875 C-3.57855469 4.19285156 -4.30945313 4.43648438 -5.0625 4.6875 C-6.16271484 5.06455078 -6.16271484 5.06455078 -7.28515625 5.44921875 C-7.85105469 5.63097656 -8.41695312 5.81273437 -9 6 C-9 5.01 -9 4.02 -9 3 C-2.25 0 -2.25 0 0 0 Z " fill="#DAD9DB" transform="translate(249,465)"/>
<path d="M0 0 C3.96 1.98 3.96 1.98 8 4 C7.67 4.66 7.34 5.32 7 6 C4.0625 5.25 4.0625 5.25 1 4 C0.67 2.68 0.34 1.36 0 0 Z " fill="#D9D8DA" transform="translate(148,463)"/>
<path d="M0 0 C2.31 0 4.62 0 7 0 C6.67 0.66 6.34 1.32 6 2 C3.67843403 2.40729228 1.3431213 2.74438677 -1 3 C-0.67 2.01 -0.34 1.02 0 0 Z " fill="#DCDBDD" transform="translate(187,266)"/>
</svg>
